<svg viewBox="0 0 229 47" fill="none" xmlns="http://www.w3.org/2000/svg"><mask id="a" style="mask-type:luminance" maskUnits="userSpaceOnUse" x="0" y="0" width="229" height="47"><path d="M70.68 19.43c0-2.35-.86-4.06-2.14-5.34-1.5-1.5-3.41-2.13-5.98-2.13h-9.6v20.28h3.2v-5.55h7.04l3.2 5.55h3.64l-3.85-6.2a12.2 12.2 0 0 0 3.2-2.34 7.7 7.7 0 0 0 1.29-4.27Zm-49.75-.43a9.92 9.92 0 0 0 1.29-4.9c0-2.57-.86-4.7-2.57-6.2-1.7-1.7-3.84-2.35-6.61-2.35h-12.6v.43h.43c.85 0 1.7.21 2.13.85.22 0 .22.22.22.22.42.64.64 1.28.85 1.92v26.04c-.21.86-.43 1.5-1.07 2.14-.64.42-1.28.85-2.13.85h-.43v.43h10.25v-.43h-1.07a4.25 4.25 0 0 1-1.7-.85 2.74 2.74 0 0 1-.86-2.14v-27.96h5.77c1.91 0 3.4.64 4.26 2.13a8.4 8.4 0 0 1 1.71 5.34c0 .64-.21 1.28-.21 1.92a6.5 6.5 0 0 1-1.71 3.41c-.43.22-.64.43-.86.65-.64.42-1.06.64-1.92.85-.64.21-1.28.43-1.92.43h-3.63v.64c.64 0 1.5.64 2.56 1.92l6.62 7.26c3.42 3.84 5.77 6.4 6.83 7.68a70.9 70.9 0 0 0 4.06 3.84c.64.65 1.5 1.29 2.35 1.71.64.43 1.5.86 2.35 1.28 1.06.22 1.7.43 2.56.64.85.22 1.7.22 2.77.22s2.14-.22 3.42-.64v-.43c-.43.21-.64.21-1.07.21-1.92 0-3.63-.64-5.55-1.5-.85-.63-1.92-1.27-3.2-2.34-1.07-.85-2.35-2.13-4.06-3.63-1.5-1.7-4.9-5.34-10.24-11.31a54.33 54.33 0 0 1-3.63-4.06c1.7 0 2.99-.43 4.27-1.5.42-.2.85-.63 1.28-1.27.42-.43.85-.86 1.06-1.5Zm.65.64c-.22.64-.65 1.07-1.07 1.5-.22.42-.86.85-1.28 1.28l15.8 16.86h.42v-1.07c-.43-1.92-.43-3.84-.43-5.76v-27.75c0-.86.43-1.71 1.07-2.35a2.74 2.74 0 0 1 2.14-.85h1.06v-.65h-11.1v.65h1.07c.85 0 1.7.2 2.35.85.64.64.85 1.5.85 2.35v26.68l-10.88-11.74Zm-18.36-14.94h4.27l-4.27-4.7h-.43v.85c.21 1.29.43 2.35.43 3.85Zm14.51 10.89-7.04-7.69h-2.78v2.35l8.33 8.96a6.06 6.06 0 0 0 1.5-3.62Zm38.43-.86h6.4c1.71 0 3 .64 3.85 1.7a4.27 4.27 0 0 1 1.06 3 5.1 5.1 0 0 1-1.06 2.99c-.86.85-1.92 1.28-3.63 1.28h-6.62v-8.97Zm17.3 17.5h16.22v-2.77h-13.03v-6.4h11.1v-3h-11.1v-5.12h12.39v-2.98h-15.59v20.28Zm30.3 0v-4.69l8.76-15.58h-3.63l-6.62 12.16h-.21l-6.62-12.16h-3.63l8.75 15.58v4.7h3.2Zm37.37-20.27v15.58l-12.81-15.58h-3.2v20.28h3.2v-15.37l12.8 15.37h3v-20.28h-3Zm6.4 20.28h16.22v-2.78h-13.02v-6.4h11.1v-3h-11.1v-5.12h12.6v-2.98h-15.8v20.28Zm36.72-11.74h-8.54v2.77l5.34.21v4.91a9.1 9.1 0 0 1-5.13 1.5 7.98 7.98 0 0 1-5.33-2.14 8.67 8.67 0 0 1-2.14-5.76 8 8 0 0 1 2.14-5.34 8.53 8.53 0 0 1 5.55-2.13c2.56 0 4.27.64 5.98 2.35l1.92-2.14a10.3 10.3 0 0 0-7.9-3.2c-3.2 0-5.77 1.07-7.9 2.99a10.67 10.67 0 0 0-2.99 7.47c0 2.99 1.07 5.55 2.78 7.47 1.92 1.92 4.7 3.2 7.9 3.2 2.34 0 4.26-.64 5.76-1.7l.64 1.49 1.92-.21v-11.74Zm21.13-1.07c0-2.35-.85-4.06-2.13-5.34-1.5-1.5-3.42-2.13-5.98-2.13h-9.6v20.28h3.2v-5.55h6.83l3.42 5.55h3.62l-3.84-6.2a8.6 8.6 0 0 0 2.99-2.34 6.52 6.52 0 0 0 1.5-4.27Zm-14.51-4.7h6.4c1.71 0 3 .64 3.84 1.7a4.27 4.27 0 0 1 1.07 3c0 1.07-.43 2.13-1.28 2.99-.64.85-1.92 1.28-3.41 1.28h-6.62v-8.97Zm16.44 7.47c0 3 1.28 5.55 3.2 7.48a11.19 11.19 0 0 0 7.68 2.98c2.78 0 5.34-1.06 7.47-2.98a10.48 10.48 0 0 0 3.2-7.48c0-2.77-.85-5.12-2.55-7.04a11.1 11.1 0 0 0-8.12-3.63c-2.98 0-5.76 1.07-7.68 3.2a10.48 10.48 0 0 0-3.2 7.47Zm3.2 0c0-2.13.64-4.05 2.13-5.55a7.86 7.86 0 0 1 5.55-2.35c2.14 0 4.27.86 5.55 2.57 1.28 1.28 1.92 3.2 1.92 5.33 0 2.14-.63 4.06-2.13 5.34a6.94 6.94 0 0 1-5.34 2.35 7.58 7.58 0 0 1-5.33-2.14 7.75 7.75 0 0 1-2.35-5.55Z" fill="#fff"/></mask><g mask="url(#a)"><path d="m108.68 146.66 124.67-124.67-124.67 124.67Z" fill="#E0BE69"/><path d="m108.68 146.88-.22-.22 124.68-124.88.42.21-124.88 124.89Z" fill="#E1BF6A"/><path d="m108.68 146.66-.43-.2 124.89-124.68.21.21-124.67 124.67Z" fill="#E2C16C"/><path d="m108.46 146.45-.21-.21 124.67-124.68.22.22-124.68 124.67Z" fill="#E3C26D"/><path d="m108.25 146.24-.22-.22 124.68-124.67.21.21-124.67 124.68Z" fill="#E3C36F"/><path d="m108.04 146.24-.22-.22 124.89-124.88.21.2-124.88 124.9Z" fill="#E4C570"/><path d="m108.04 146.02-.22-.21 124.68-124.67.21.2-124.67 124.68Z" fill="#E5C671"/><path d="m107.82 145.81-.21-.21 124.67-124.68.22.22-124.68 124.67Z" fill="#E6C874"/><path d="m107.6 145.81-.2-.43 124.67-124.67.21.21-124.67 124.89Z" fill="#E7CA75"/><path d="m107.4 145.6-.22-.22 124.89-124.88.21.42-124.89 124.68Z" fill="#E7CB76"/><path d="m107.4 145.38-.22-.21 124.68-124.67.2.2-124.67 124.68Z" fill="#E9CD79"/><path d="m107.18 145.17-.21-.21 124.67-124.68.22.22-124.68 124.67Z" fill="#EACE7A"/><path d="m106.97 145.17-.22-.21 124.68-124.9.43.22-124.9 124.89Z" fill="#EAD07B"/><path d="m106.97 144.96-.43-.22 124.89-124.67.21.21-124.67 124.68Z" fill="#EBD17D"/><path d="m106.75 144.74-.2-.21 124.67-124.67.2.2-124.67 124.68Z" fill="#ECD37F"/><path d="m106.54 144.53-.21-.22 124.67-124.67.22.21-124.68 124.68Z" fill="#EDD580"/><path d="m106.33 144.53-.22-.21 124.68-124.9.43.22-124.9 124.89Z" fill="#EED683"/><path d="m106.33 144.32-.43-.22 124.89-124.67.21.21-124.67 124.68Z" fill="#EFD884"/><path d="m106.11 144.1-.21-.21 124.67-124.68.22.22-124.68 124.67Z" fill="#F0D985"/><path d="m105.9 143.89-.21-.21 124.67-124.68.21.21-124.67 124.68Z" fill="#F0DB88"/><path d="m105.69 143.89-.22-.21 124.9-124.9.2.22-124.88 124.89Z" fill="#F1DD89"/><path d="m105.69 143.68-.22-.22 124.68-124.67.21.21-124.67 124.68Z" fill="#F2DE8A"/><path d="m105.47 143.46-.2-.21 124.67-124.68.2.22-124.67 124.67Z" fill="#F3DF8D"/><path d="m105.26 143.46-.21-.43 124.67-124.67.22.21-124.68 124.9Z" fill="#F4E18E"/><path d="m105.05 143.25-.22-.22 124.9-124.88.2.42-124.88 124.68Z" fill="#F5E390"/><path d="m105.05 143.03-.22-.2 124.68-124.68.21.21-124.67 124.67Z" fill="#F5E491"/><path d="m104.83 142.82-.21-.21 124.67-124.68.22.22-124.68 124.67Z" fill="#F7E693"/><path d="m104.62 142.82-.21-.21 124.67-124.89.43.21-124.89 124.9Z" fill="#F7E895"/><path d="m104.62 142.6-.43-.2 124.89-124.68.21.21-124.67 124.68Z" fill="#F8E996"/><path d="m104.4 142.4-.2-.22 124.67-124.67.21.21-124.67 124.68Z" fill="#F7E896"/><path d="m104.2 142.18-.22-.21 124.67-124.68.22.22-124.68 124.67Z" fill="#F6E795"/><path d="m103.98 142.18-.21-.21 124.67-124.89.43.21-124.9 124.9Z" fill="#F5E592"/><path d="m103.98 141.97-.43-.22 124.9-124.67.2.21-124.67 124.68Z" fill="#F5E490"/><path d="m103.77 141.75-.22-.2 124.68-124.68.21.21-124.67 124.67Z" fill="#F2E18E"/><path d="m103.55 141.54-.21-.21 124.67-124.68.22.22-124.68 124.67Z" fill="#F2E08C"/><path d="m103.34 141.54-.22-.21 124.9-124.9.2.22-124.88 124.9Z" fill="#F0DE8A"/><path d="m103.34 141.33-.22-.22 124.68-124.67.21.21-124.67 124.68Z" fill="#EFDD88"/><path d="m103.13 141.11-.22-.21 124.68-124.67.21.2-124.67 124.68Z" fill="#EDDA85"/><path d="m102.91 141.11-.21-.42 124.67-124.68.22.22-124.68 124.88Z" fill="#ECD884"/><path d="m102.7 140.9-.22-.21 124.9-124.9.2.44-124.88 124.67Z" fill="#ECD782"/><path d="m102.7 140.69-.22-.22 124.68-124.67.21.21-124.67 124.68Z" fill="#EAD580"/><path d="m102.48 140.47-.2-.21 124.67-124.67.2.2-124.67 124.68Z" fill="#E9D47E"/><path d="m102.27 140.47-.21-.42 124.67-124.68.22.22-124.68 124.88Z" fill="#E7D17B"/><path d="m102.27 140.26-.42-.21 124.88-124.68.22.22-124.68 124.67Z" fill="#E6D07A"/><path d="m102.06 140.05-.22-.22 124.68-124.67.21.21-124.67 124.68Z" fill="#E6CF78"/><path d="m101.84 139.83-.2-.21 124.67-124.68.2.22-124.67 124.67Z" fill="#E4CC77"/><path d="m101.63 139.83-.21-.21 124.67-124.89.43.21-124.89 124.9Z" fill="#E2CB74"/><path d="m101.63 139.62-.43-.21 124.9-124.68.2.21-124.67 124.68Z" fill="#E1C973"/><path d="m101.42 139.4-.22-.2 124.68-124.68.21.21-124.67 124.68Z" fill="#E0C871"/><path d="m101.2 139.2-.2-.22 124.67-124.68.2.22-124.67 124.67Z" fill="#DFC66E"/><path d="m101 139.2-.22-.22 124.88-124.89.22.21-124.89 124.9Z" fill="#DDC46D"/><path d="m101 138.98-.22-.22 124.67-124.67.22.21-124.68 124.68Z" fill="#DCC36B"/><path d="m100.78 138.76-.22-.2 124.68-124.68.21.21-124.67 124.67Z" fill="#DBC16A"/><path d="m100.56 138.76-.2-.42 124.67-124.68.2.22-124.67 124.88Z" fill="#DABF67"/><path d="m100.35 138.55-.21-.21 124.89-124.89.2.43-124.88 124.67Z" fill="#D9BE65"/><path d="m100.35 138.34-.21-.22 124.67-124.67.22.21-124.68 124.68Z" fill="#D7BC64"/><path d="m100.14 138.13-.22-.22 124.68-124.67.21.21-124.67 124.67Z" fill="#D6BB62"/><path d="m99.92 138.13-.21-.43 124.67-124.68.22.22-124.68 124.88Z" fill="#D5B961"/><path d="m99.92 137.91-.42-.21 124.88-124.89.22.43-124.68 124.67Z" fill="#D4B75F"/><path d="m99.71 137.7-.21-.22 124.67-124.67.21.21-124.67 124.68Z" fill="#D2B55D"/><path d="m99.5 137.48-.22-.2 124.68-124.68.21.21-124.67 124.67Z" fill="#D1B45B"/><path d="m99.28 137.48-.21-.2 124.67-124.9.43.22-124.89 124.88Z" fill="#D1B259"/><path d="m99.28 137.27-.42-.21 124.88-124.68.22.22-124.68 124.67Z" fill="#CFB158"/><path d="m99.07 137.06-.21-.22 124.67-124.67.21.21-124.67 124.68Z" fill="#CEAF56"/><path d="m98.86 136.84-.22-.21 124.68-124.67.21.2-124.67 124.68Z" fill="#CCAE55"/><path d="m98.64 136.84-.21-.21 124.89-124.89.21.22-124.89 124.88Z" fill="#CCAC53"/><path d="m98.64 136.63-.21-.21 124.67-124.68.22.22-124.68 124.67Z" fill="#CBAB51"/><path d="m98.43 136.42-.22-.22 124.68-124.67.21.21-124.67 124.68Z" fill="#C9A950"/><path d="m98.22 136.42-.22-.43 124.68-124.67.21.2-124.67 124.9Z" fill="#C8A84E"/><path d="m98 136.2-.21-.21 124.89-124.89.2.43-124.88 124.67Z" fill="#C6A64D"/><path d="m98 135.99-.21-.21 124.67-124.68.22.22-124.68 124.67Z" fill="#C6A54B"/><path d="m97.79 135.78-.21-.22 124.67-124.67.21.21-124.67 124.68Z" fill="#C5A449"/><path d="m97.57 135.78-.2-.43 124.67-124.68.2.22-124.67 124.89Z" fill="#C3A248"/><path d="m97.36 135.56-.21-.21 124.88-124.89.22.43-124.89 124.67Z" fill="#C2A046"/><path d="m97.36 135.35-.21-.21 124.67-124.68.22.22-124.68 124.67Z" fill="#C09F45"/><path d="m97.15 135.14-.22-.22 124.68-124.67.21.21-124.67 124.68Z" fill="#C09D43"/><path d="m96.93 135.14-.2-.22 124.67-124.89.42.22-124.89 124.89Z" fill="#BE9C42"/><path d="m96.93 134.92-.42-.21 124.89-124.68.2.22-124.67 124.67Z" fill="#BD9A40"/><path d="m96.72 134.7-.21-.2 124.67-124.68.22.21-124.68 124.68Z" fill="#BC993F"/><path d="m96.5 134.5-.2-.22 124.67-124.67.21.21-124.67 124.68Z" fill="#BB973E"/><path d="m96.3 134.5-.22-.22 124.89-124.89.21.22-124.89 124.89Z" fill="#B9963C"/><path d="m96.3 134.28-.22-.21 124.67-124.68.22.22-124.68 124.67Z" fill="#B8943B"/><path d="m96.08 134.07-.21-.22 124.67-124.67.22.21-124.68 124.68Z" fill="#B79339"/><path d="m95.87 134.07-.22-.43 124.68-124.67.21.21-124.67 124.89Z" fill="#B8943B"/><path d="m95.65 133.85-.21-.2 124.89-124.9.21.43-124.89 124.67Z" fill="#B9963C"/><path d="m95.65 133.64-.21-.21 124.68-124.68.2.22-124.67 124.67Z" fill="#BB973E"/><path d="m95.44 133.43-.21-.22 124.67-124.67.21.21-124.67 124.68Z" fill="#BC993F"/><path d="m95.23 133.43-.22-.43 124.68-124.67.21.21-124.67 124.89Z" fill="#BD9A40"/><path d="m95.01 133.22-.21-.22 124.89-124.89.21.43-124.89 124.68Z" fill="#BE9C42"/><path d="m95.01 133-.21-.21 124.67-124.68.22.22-124.68 124.67Z" fill="#C09D43"/><path d="m94.8 132.79-.21-.22 124.67-124.67.21.21-124.67 124.68Z" fill="#C09F45"/><path d="m94.59 132.79-.22-.22 124.68-124.88.42.21-124.88 124.89Z" fill="#C2A046"/><path d="m94.59 132.57-.43-.21 124.89-124.67.21.21-124.67 124.67Z" fill="#C3A248"/><path d="m94.37 132.36-.21-.21 124.67-124.68.22.22-124.68 124.67Z" fill="#C5A449"/><path d="m94.16 132.15-.21-.22 124.67-124.67.21.21-124.67 124.68Z" fill="#C6A54B"/><path d="m93.95 132.15-.22-.22 124.89-124.88.21.2-124.88 124.9Z" fill="#C6A64D"/><path d="m93.95 131.93-.22-.21 124.68-124.67.21.2-124.67 124.68Z" fill="#C8A84E"/><path d="m93.73 131.72-.21-.21 124.67-124.68.22.22-124.68 124.67Z" fill="#C9A950"/><path d="m93.52 131.5-.22-.2 124.68-124.68.21.21-124.67 124.68Z" fill="#CBAB51"/><path d="m93.3 131.5-.2-.2 124.88-124.9.21.43-124.88 124.68Z" fill="#CCAC53"/><path d="m93.3 131.3-.2-.22 124.67-124.67.21.2-124.67 124.68Z" fill="#CCAE55"/><path d="m93.1 131.08-.22-.21 124.67-124.68.22.22-124.68 124.67Z" fill="#CEAF56"/><path d="m92.88 131.08-.21-.43 124.67-124.67.21.21-124.67 124.89Z" fill="#CFB158"/><path d="m92.66 130.87-.2-.22 124.88-124.89.21.43-124.89 124.68Z" fill="#D1B259"/><path d="m92.66 130.65-.2-.21 124.67-124.68.2.22-124.67 124.67Z" fill="#D1B45B"/><path d="m92.45 130.44-.21-.21 124.67-124.68.22.22-124.68 124.67Z" fill="#D2B55D"/><path d="m92.24 130.44-.22-.21 124.68-124.9.43.22-124.9 124.89Z" fill="#D4B75F"/><path d="m92.24 130.23-.43-.22 124.89-124.67.21.21-124.67 124.68Z" fill="#D5B961"/><path d="m92.02 130.01-.2-.21 124.67-124.68.2.22-124.67 124.67Z" fill="#D6BB62"/><path d="m91.81 129.8-.21-.22 124.67-124.67.22.21-124.68 124.68Z" fill="#D7BC64"/><path d="m91.6 129.8-.22-.21 124.68-124.9.43.22-124.9 124.89Z" fill="#D9BE65"/><path d="m91.6 129.59-.22-.22 124.68-124.67.21.21-124.67 124.68Z" fill="#DABF67"/><path d="m91.38 129.37-.2-.21 124.66-124.68.22.22-124.68 124.67Z" fill="#DBC16A"/><path d="m91.17 129.16-.21-.22 124.67-124.67.22.21-124.68 124.68Z" fill="#DCC36B"/><path d="m90.96 129.16-.22-.22 124.9-124.88.2.42-124.88 124.68Z" fill="#DDC46D"/><path d="m90.96 128.94-.22-.2 124.68-124.68.21.21-124.67 124.67Z" fill="#DFC66E"/><path d="m90.74 128.73-.21-.21 124.68-124.68.2.22-124.67 124.67Z" fill="#E0C871"/><path d="m90.53 128.73-.21-.42 124.67-124.68.21.21-124.67 124.9Z" fill="#E1C973"/><path d="m90.32 128.52-.22-.22 124.9-124.88.2.42-124.88 124.68Z" fill="#E2CB74"/><path d="m90.32 128.3-.22-.2 124.68-124.68.21.21-124.67 124.67Z" fill="#E4CC77"/><path d="m90.1 128.1-.21-.22 124.67-124.68.22.22-124.68 124.67Z" fill="#E6CF78"/><path d="m89.89 128.1-.21-.22 124.67-124.89.43.21-124.9 124.9Z" fill="#E6D07A"/><path d="m89.89 127.88-.43-.22 124.9-124.67.2.21-124.67 124.68Z" fill="#E7D17B"/><path d="m89.68 127.66-.22-.21 124.68-124.67.21.2-124.67 124.68Z" fill="#E9D47E"/><path d="m89.46 127.45-.21-.21 124.67-124.68.22.22-124.68 124.67Z" fill="#EAD580"/><path d="m89.25 127.45-.21-.21 124.67-124.9.43.22-124.9 124.89Z" fill="#ECD782"/><path d="m89.25 127.24-.43-.22 124.89-124.67.21.21-124.67 124.68Z" fill="#ECD884"/><path d="m89.04 127.02-.22-.21 124.68-124.67.21.2-124.67 124.68Z" fill="#EDDA85"/><path d="m88.82 126.81-.21-.21 124.67-124.68.22.22-124.68 124.67Z" fill="#EFDD88"/><path d="m88.6 126.81-.2-.21 124.88-124.9.22.22-124.9 124.89Z" fill="#F0DE8A"/><path d="m88.6 126.6-.2-.22 124.67-124.67.21.21-124.67 124.68Z" fill="#F2E08C"/><path d="m88.4 126.38-.22-.21 124.68-124.67.2.2-124.66 124.68Z" fill="#F2E18E"/><path d="m88.18 126.38-.21-.42 124.67-124.68.22.22-124.68 124.88Z" fill="#F5E490"/><path d="m87.97 126.17-.22-.21 124.9-124.9.2.44-124.88 124.67Z" fill="#F5E592"/><path d="m87.97 125.96-.22-.22 124.68-124.67.21.21-124.67 124.68Z" fill="#F6E795"/><path d="m87.75 125.74-.2-.21 124.67-124.68.2.22-124.67 124.67Z" fill="#F7E896"/><path d="m87.54 125.74-.21-.21 124.67-124.89.43.22-124.89 124.88Z" fill="#F8E996"/><path d="m87.54 125.53-.43-.21 124.9-124.68.2.22-124.67 124.67Z" fill="#F7E895"/><path d="m87.33 125.32-.22-.22 124.68-124.67.21.21-124.67 124.68Z" fill="#F7E693"/><path d="m87.11 125.1-.21-.21 124.67-124.68.22.22-124.68 124.67Z" fill="#F5E491"/><path d="m86.9 125.1-.21-.21 124.67-124.89.43.21-124.89 124.9Z" fill="#F5E390"/><path d="m86.9 124.89-.43-.22 124.9-124.67.2.21-124.67 124.68Z" fill="#F4E18E"/><path d="m86.69 124.67-.22-.2 124.68-124.68.21.21-124.67 124.67Z" fill="#F3DF8D"/><path d="m86.47 124.46-.2-.21 124.67-124.68.2.22-124.67 124.67Z" fill="#F2DE8A"/><path d="m86.26 124.46-.21-.21 124.89-124.89.2.21-124.88 124.9Z" fill="#F1DD89"/><path d="m86.26 124.25-.21-.22 124.67-124.67.22.21-124.68 124.68Z" fill="#F0DB88"/><path d="m86.05 124.03-.22-.2 124.68-124.68.21.21-124.67 124.67Z" fill="#F0D985"/><path d="m85.83 124.03-.21-.42 124.67-124.68.22.22-124.68 124.89Z" fill="#EFD884"/><path d="m85.62 123.82-.21-.21 124.88-124.89.22.43-124.89 124.67Z" fill="#EED683"/><path d="m85.62 123.6-.21-.2 124.67-124.68.21.21-124.67 124.68Z" fill="#EDD580"/><path d="m85.4 123.4-.2-.22 124.67-124.67.21.21-124.67 124.67Z" fill="#ECD37F"/><path d="m85.2 123.4-.22-.22 124.67-124.89.43.22-124.89 124.88Z" fill="#EBD17D"/><path d="m85.2 123.18-.43-.21 124.88-124.68.22.22-124.68 124.67Z" fill="#EAD07B"/><path d="m84.98 122.97-.21-.22 124.67-124.67.21.21-124.67 124.68Z" fill="#EACE7A"/><path d="m84.77 122.75-.22-.2 124.68-124.68.21.21-124.67 124.67Z" fill="#E9CD79"/><path d="m84.55 122.75-.21-.2 124.67-124.9.43.22-124.89 124.88Z" fill="#E7CB76"/><path d="m84.55 122.54-.42-.21 124.88-124.68.22.22-124.68 124.67Z" fill="#E7CA75"/><path d="m84.34 122.33-.21-.22 124.67-124.67.21.21-124.67 124.68Z" fill="#E6C874"/><path d="m84.13 122.11-.22-.21 124.68-124.67.21.21-124.67 124.67Z" fill="#E5C671"/><path d="m83.91 122.11-.21-.21 124.89-124.89.21.22-124.89 124.88Z" fill="#E4C570"/><path d="m83.91 121.9-.21-.21 124.67-124.68.22.22-124.68 124.67Z" fill="#E3C36F"/><path d="m83.7 121.69-.21-.22 124.67-124.67.21.21-124.67 124.68Z" fill="#E3C26D"/><path d="m83.48 121.69-.2-.43 124.67-124.67.2.2-124.67 124.9Z" fill="#E2C16C"/><path d="m83.27 121.47-.21-.21 124.88-124.89.22.43-124.89 124.67Z" fill="#E1BF6A"/><path d="m83.27 121.26-.21-.21 124.67-124.68.22.22-124.68 124.67Z" fill="#E0BE69"/><path d="m83.06 121.05-.22-.22 124.68-124.67.21.21-124.67 124.68Z" fill="#DFBC67"/><path d="m82.84 121.05-.2-.43 124.67-124.68.2.22-124.67 124.89Z" fill="#DEBB66"/><path d="m82.84 120.83-.42-.21 124.89-124.68.2.22-124.67 124.67Z" fill="#DDBA64"/><path d="m82.63 120.62-.21-.21 124.67-124.68.22.21-124.68 124.68Z" fill="#DCB862"/><path d="m82.42 120.4-.22-.2 124.68-124.68.21.21-124.67 124.67Z" fill="#DBB661"/><path d="m82.2 120.4-.21-.2 124.67-124.9.43.22-124.89 124.89Z" fill="#DBB560"/><path d="m82.2 120.2-.42-.22 124.88-124.68.22.22-124.68 124.67Z" fill="#DAB45E"/><path d="m82 119.98-.22-.22 124.67-124.67.22.21-124.68 124.68Z" fill="#D9B25D"/><path d="m81.78 119.77-.22-.22 124.68-124.67.21.21-124.67 124.67Z" fill="#D8B15C"/><path d="m81.56 119.77-.2-.22 124.88-124.89.21.22-124.89 124.89Z" fill="#D7B05A"/><path d="m81.56 119.55-.2-.21 124.67-124.68.2.22-124.67 124.67Z" fill="#D6AE58"/><path d="m81.35 119.34-.21-.22 124.67-124.67.22.21-124.68 124.68Z" fill="#D5AD57"/><path d="m81.14 119.34-.22-.43 124.68-124.67.21.21-124.67 124.89Z" fill="#D4AB55"/><path d="m80.92 119.13-.21-.22 124.89-124.89.21.43-124.89 124.67Z" fill="#D4AA54"/><path d="m80.92 118.91-.21-.21 124.67-124.68.22.22-124.68 124.67Z" fill="#D3A953"/><path d="m80.71 118.7-.21-.22 124.67-124.67.21.21-124.67 124.68Z" fill="#D2A751"/><path d="m80.5 118.7-.22-.43 124.68-124.67.21.21-124.67 124.89Z" fill="#D1A650"/><path d="m80.5 118.48-.43-.2 124.89-124.9.21.43-124.67 124.67Z" fill="#D0A44F"/><path d="m80.28 118.27-.21-.21 124.67-124.68.22.22-124.68 124.67Z" fill="#CFA34E"/><path d="m80.07 118.06-.21-.22 124.67-124.67.21.21-124.67 124.68Z" fill="#CEA14C"/><path d="m79.86 118.06-.22-.22 124.68-124.88.42.21-124.88 124.89Z" fill="#CDA04B"/><path d="m79.86 117.84-.43-.21 124.89-124.67.21.21-124.67 124.67Z" fill="#CD9E4A"/><path d="m79.64 117.63-.21-.21 124.67-124.68.22.22-124.68 124.67Z" fill="#CC9D48"/><path d="m79.43 117.42-.21-.22 124.67-124.67.21.21-124.67 124.68Z" fill="#CB9C47"/><path d="m79.22 117.42-.22-.22 124.89-124.88.21.2-124.88 124.9Z" fill="#CA9A46"/><path d="m79.22 117.2-.22-.21 124.68-124.67.21.2-124.67 124.68Z" fill="#C99944"/><path d="m79 116.99-.21-.21 124.67-124.68.22.22-124.68 124.67Z" fill="#C99843"/><path d="m78.79 116.99-.21-.43 124.67-124.67.21.21-124.67 124.89Z" fill="#C89642"/><path d="m78.57 116.78-.2-.22 124.88-124.88.21.42-124.89 124.68Z" fill="#C79541"/><path d="m78.57 116.56-.2-.21 124.67-124.67.2.2-124.67 124.68Z" fill="#C59340"/><path d="m78.36 116.35-.21-.21 124.67-124.68.22.21-124.68 124.68Z" fill="#C5923F"/><path d="m78.15 116.35-.22-.43 124.68-124.67.21.21-124.67 124.89Z" fill="#C4903D"/><path d="m77.93 116.14-.2-.22 124.88-124.89.21.43-124.89 124.68Z" fill="#C48F3C"/><path d="m77.93 115.92-.2-.21 124.67-124.68.2.22-124.67 124.67Z" fill="#C38E3B"/><path d="m77.72 115.7-.21-.2 124.67-124.68.22.21-124.68 124.68Z" fill="#C18C3A"/><path d="m77.5 115.7-.2-.2 124.67-124.9.43.22-124.9 124.89Z" fill="#C18B39"/><path d="m77.5 115.5-.42-.22 124.89-124.67.21.21-124.67 124.68Z" fill="#C08938"/><path d="m77.3 115.28-.22-.21 124.67-124.68.22.22-124.68 124.67Z" fill="#BF8837"/><path d="m77.08 115.07-.21-.21 124.67-124.68.22.21-124.68 124.68Z" fill="#BE8735"/><path d="m76.87 115.07-.22-.21 124.9-124.9.2.22-124.88 124.89Z" fill="#BE8535"/><path d="m76.87 114.86-.22-.22 124.68-124.67.21.21-124.67 124.68Z" fill="#BD8434"/><path d="m76.65 114.64-.21-.21 124.67-124.68.22.22-124.68 124.67Z" fill="#BC8232"/><path d="m76.44 114.64-.21-.43 124.67-124.67.21.21-124.67 124.9Z" fill="#BB8132"/><path d="m76.23 114.43-.22-.22 124.89-124.88.21.42-124.88 124.68Z" fill="#BC8232"/><path d="m76.23 114.22-.22-.22 124.68-124.67.21.21-124.67 124.68Z" fill="#BD8433"/><path d="m76.01 114-.21-.21 124.67-124.68.22.22-124.68 124.67Z" fill="#BD8534"/><path d="m75.8 114-.21-.43 124.67-124.67.21.21-124.67 124.9Z" fill="#BE8635"/><path d="m75.59 113.79-.22-.22 124.9-124.88.2.42-124.88 124.68Z" fill="#BF8736"/><path d="m75.59 113.57-.22-.2 124.68-124.68.21.21-124.67 124.67Z" fill="#C08837"/><path d="m75.37 113.36-.21-.21 124.67-124.68.22.22-124.68 124.67Z" fill="#C08A38"/><path d="m75.16 113.36-.21-.21 124.67-124.9.43.22-124.9 124.9Z" fill="#C18B39"/><path d="m75.16 113.15-.43-.22 124.89-124.67.21.21-124.67 124.68Z" fill="#C18C3A"/><path d="m74.95 112.93-.22-.21 124.68-124.67.21.2-124.67 124.68Z" fill="#C28D3B"/><path d="m74.73 112.72-.21-.21 124.67-124.68.22.22-124.68 124.67Z" fill="#C48F3C"/><path d="m74.52 112.72-.21-.21 124.88-124.9.22.22-124.9 124.89Z" fill="#C4903C"/><path d="m74.52 112.5-.21-.2 124.67-124.68.21.21-124.67 124.68Z" fill="#C5913E"/><path d="m74.3 112.3-.2-.22 124.67-124.67.21.2-124.67 124.68Z" fill="#C5923F"/><path d="m74.1 112.08-.22-.21 124.67-124.68.22.22-124.68 124.67Z" fill="#C69440"/><path d="m73.88 112.08-.21-.21 124.88-124.9.22.44-124.9 124.67Z" fill="#C69441"/><path d="m73.88 111.87-.21-.22 124.67-124.67.21.21-124.67 124.68Z" fill="#C89642"/><path d="m73.66 111.65-.2-.21 124.67-124.67.2.2-124.67 124.68Z" fill="#C89743"/><path d="m73.45 111.65-.21-.42 124.67-124.68.22.21-124.68 124.9Z" fill="#C99944"/><path d="m73.24 111.44-.22-.21 124.9-124.9.2.44-124.88 124.67Z" fill="#C99945"/><path d="m73.24 111.23-.22-.22 124.68-124.67.21.21-124.67 124.68Z" fill="#CA9B46"/><path d="m73.02 111.01-.2-.21 124.67-124.68.2.22-124.67 124.67Z" fill="#CB9C47"/><path d="m72.81 111.01-.21-.21 124.67-124.89.43.21-124.89 124.9Z" fill="#CC9E49"/><path d="m72.81 110.8-.43-.22 124.9-124.67.2.21-124.67 124.68Z" fill="#CD9F4A"/><path d="m72.6 110.59-.22-.22 124.68-124.67.21.21-124.67 124.68Z" fill="#CDA04A"/><path d="m72.38 110.37-.21-.21 124.67-124.68.22.22-124.68 124.67Z" fill="#CEA14C"/><path d="m72.17 110.37-.21-.21 124.67-124.89.43.21-124.89 124.9Z" fill="#CFA24D"/><path d="m72.17 110.16-.21-.22 124.67-124.67.22.21-124.68 124.68Z" fill="#D0A44E"/><path d="m71.96 109.94-.22-.2 124.68-124.68.21.21-124.67 124.67Z" fill="#D0A44F"/><path d="m71.74 109.73-.21-.21 124.67-124.68.22.22-124.68 124.67Z" fill="#D1A650"/><path d="m71.53 109.73-.21-.21 124.88-124.89.22.43-124.89 124.67Z" fill="#D2A751"/><path d="m71.53 109.52-.21-.22 124.67-124.67.21.21-124.67 124.68Z" fill="#D3A953"/><path d="m71.32 109.3-.22-.2 124.68-124.68.21.21-124.67 124.68Z" fill="#D4AA54"/><path d="m71.1 109.3-.21-.42 124.67-124.68.22.22-124.68 124.88Z" fill="#D4AB55"/><path d="m70.89 109.1-.21-.22 124.88-124.89.22.43-124.9 124.67Z" fill="#D5AC56"/><path d="m70.89 108.88-.21-.22 124.67-124.67.21.21-124.67 124.68Z" fill="#D6AD57"/><path d="m70.68 108.66-.22-.2 124.68-124.68.21.21-124.67 124.67Z" fill="#D6AF58"/><path d="m70.46 108.66-.21-.21 124.67-124.89.43.22-124.89 124.88Z" fill="#D7AF59"/><path d="m70.46 108.45-.42-.21 124.88-124.68.22.22-124.68 124.67Z" fill="#D8B15B"/><path d="m70.25 108.24-.21-.22 124.67-124.67.21.21-124.67 124.68Z" fill="#D9B35C"/><path d="m70.04 108.02-.22-.21 124.68-124.67.21.2-124.67 124.68Z" fill="#DAB45D"/><path d="m69.82 108.02-.21-.21 124.67-124.89.43.22-124.89 124.88Z" fill="#DAB45E"/><path d="m69.82 107.81-.42-.21 124.88-124.68.22.22-124.68 124.67Z" fill="#DBB65F"/><path d="m69.6 107.6-.2-.22 124.67-124.67.21.21-124.67 124.68Z" fill="#DBB761"/><path d="m69.4 107.38-.22-.21 124.68-124.67.2.2-124.66 124.68Z" fill="#DDB962"/><path d="m69.18 107.38-.21-.21 124.89-124.89.21.22-124.89 124.88Z" fill="#DEBA63"/><path d="m69.18 107.17-.21-.21 124.67-124.68.22.22-124.68 124.67Z" fill="#DEBB64"/><path d="m68.97 106.96-.22-.22 124.68-124.67.21.21-124.67 124.68Z" fill="#DFBC66"/><path d="m68.75 106.96-.2-.43 124.67-124.67.2.2-124.67 124.9Z" fill="#DFBE67"/><path d="m68.54 106.74-.21-.21 124.89-124.89.2.43-124.88 124.67Z" fill="#E0BF69"/><path d="m68.54 106.53-.21-.22 124.67-124.67.22.21-124.68 124.68Z" fill="#E1C06A"/><path d="m68.33 106.32-.22-.22 124.68-124.67.21.21-124.67 124.68Z" fill="#E2C16B"/><path d="m68.11 106.32-.21-.22 124.67-124.89.43.22-124.89 124.89Z" fill="#E3C36C"/><path d="m68.11 106.1-.42-.21 124.88-124.68.22.22-124.68 124.67Z" fill="#E3C46E"/><path d="m67.9 105.89-.21-.22 124.67-124.67.21.21-124.67 124.68Z" fill="#E4C56F"/><path d="m67.69 105.67-.22-.2 124.68-124.68.21.21-124.67 124.68Z" fill="#E4C671"/><path d="m67.47 105.67-.21-.2 124.67-124.9.43.22-124.89 124.88Z" fill="#E5C872"/><path d="m67.47 105.46-.42-.21 124.89-124.68.2.22-124.67 124.67Z" fill="#E7C973"/><path d="m67.26 105.25-.21-.22 124.67-124.67.22.21-124.68 124.68Z" fill="#E7CB75"/><path d="m67.05 105.03-.22-.2 124.68-124.68.21.21-124.67 124.67Z" fill="#E8CB76"/><path d="m66.83 105.03-.21-.2 124.89-124.9.21.22-124.89 124.89Z" fill="#E9CD77"/><path d="m66.83 104.82-.21-.21 124.67-124.68.22.22-124.68 124.67Z" fill="#E9CF78"/><path d="m66.62 104.6-.21-.2 124.67-124.68.21.21-124.67 124.68Z" fill="#EAD07A"/><path d="m66.4 104.6-.2-.42 124.67-124.67.21.21-124.67 124.89Z" fill="#EAD17B"/><path d="m66.2 104.4-.22-.22 124.89-124.89.21.43-124.89 124.67Z" fill="#ECD37D"/><path d="m66.2 104.18-.22-.21 124.67-124.68.22.22-124.68 124.67Z" fill="#ECD47F"/><path d="m65.98 103.97-.21-.22 124.67-124.67.21.21-124.67 124.68Z" fill="#EDD580"/><path d="m65.77 103.97-.22-.43 124.68-124.67.42.21-124.88 124.89Z" fill="#EED781"/><path d="m65.77 103.75-.43-.2 124.89-124.68.21.21-124.67 124.67Z" fill="#EED782"/><path d="m65.55 103.54-.21-.21 124.67-124.68.22.22-124.68 124.67Z" fill="#EFD984"/><path d="m65.34 103.33-.22-.22 124.68-124.67.21.21-124.67 124.68Z" fill="#F0DB85"/><path d="m65.13 103.33-.22-.22 124.68-124.88.42.2-124.88 124.9Z" fill="#F1DC87"/><path d="m65.13 103.11-.43-.21 124.89-124.67.21.2-124.67 124.68Z" fill="#F1DD88"/><path d="m64.91 102.9-.21-.21 124.67-124.68.22.22-124.68 124.67Z" fill="#F2DF8A"/><path d="m64.7 102.69-.21-.22 124.67-124.67.21.21-124.67 124.68Z" fill="#F3E08B"/><path d="m64.48 102.69-.2-.22 124.88-124.89.21.22-124.89 124.89Z" fill="#F4E28D"/><path d="m64.48 102.47-.2-.21 124.67-124.68.2.22-124.67 124.67Z" fill="#F4E28E"/><path d="m64.27 102.26-.21-.21 124.67-124.68.22.22-124.68 124.67Z" fill="#F5E48F"/><path d="m64.06 102.26-.22-.43 124.68-124.67.21.21-124.67 124.89Z" fill="#F6E691"/><path d="m63.84 102.05-.2-.22 124.88-124.89.21.43-124.89 124.68Z" fill="#F7E792"/><path d="m63.84 101.83-.2-.21 124.67-124.68.2.22-124.67 124.67Z" fill="#F8E994"/><path d="m63.63 101.62-.21-.21 124.67-124.68.22.21-124.68 124.68Z" fill="#F7E893"/><path d="m63.42 101.62-.22-.43 124.68-124.67.21.21-124.67 124.89Z" fill="#F5E590"/><path d="m63.42 101.4-.43-.2 124.89-124.68.21.21-124.67 124.68Z" fill="#F3E28D"/><path d="m63.2 101.2-.21-.22 124.67-124.68.22.22-124.68 124.67Z" fill="#F2DF8A"/><path d="m63 100.98-.22-.22 124.67-124.67.22.21-124.68 124.68Z" fill="#F0DC87"/><path d="m62.78 100.98-.22-.22 124.68-124.88.42.21-124.88 124.89Z" fill="#EED984"/><path d="m62.78 100.77-.43-.22 124.89-124.67.21.21-124.67 124.67Z" fill="#ECD681"/><path d="m62.56 100.55-.2-.21 124.67-124.68.2.22-124.67 124.67Z" fill="#EAD37E"/><path d="m62.35 100.34-.21-.22 124.67-124.67.22.21-124.68 124.68Z" fill="#E9D07B"/><path d="m62.14 100.34-.22-.22 124.9-124.88.2.21-124.88 124.89Z" fill="#E7CD78"/><path d="m62.14 100.13-.22-.22 124.68-124.67.21.21-124.67 124.67Z" fill="#E5CA75"/><path d="m61.92 99.91-.21-.21 124.67-124.68.22.22-124.68 124.67Z" fill="#E3C872"/><path d="m61.71 99.91-.21-.43 124.67-124.67.21.21-124.67 124.9Z" fill="#E1C570"/><path d="m61.5 99.7-.22-.22 124.89-124.88.21.42-124.88 124.68Z" fill="#DFC26D"/><path d="m61.5 99.48-.22-.2 124.68-124.68.21.21-124.67 124.67Z" fill="#DDBE69"/><path d="m61.28 99.27-.21-.21 124.67-124.68.22.22-124.68 124.67Z" fill="#DBBC67"/><path d="m61.07 99.27-.21-.43 124.67-124.67.21.21-124.67 124.9Z" fill="#D9B964"/><path d="m60.86 99.06-.22-.22 124.89-124.88.21.42-124.88 124.68Z" fill="#D7B662"/><path d="m60.86 98.84-.22-.21 124.68-124.67.21.2-124.67 124.68Z" fill="#D6B45F"/><path d="m60.64 98.63-.21-.21 124.67-124.68.22.22-124.68 124.67Z" fill="#D4B15D"/><path d="m60.43 98.63-.22-.21 124.68-124.9.43.22-124.9 124.9Z" fill="#D2AE5A"/><path d="m60.43 98.42-.43-.22 124.89-124.67.21.21-124.67 124.68Z" fill="#D0AC58"/><path d="m60.22 98.2-.22-.21 124.68-124.67.21.2-124.67 124.68Z" fill="#CFA955"/><path d="m60 97.99-.21-.21 124.67-124.68.22.22-124.68 124.67Z" fill="#CDA753"/><path d="m59.79 97.99-.21-.21 124.88-124.9.22.22-124.9 124.89Z" fill="#CBA450"/><path d="m59.79 97.78-.21-.22 124.67-124.67.21.21-124.67 124.68Z" fill="#C9A14E"/><path d="m59.57 97.56-.2-.21 124.67-124.68.2.22-124.67 124.67Z" fill="#C79F4C"/><path d="m59.36 97.56-.21-.42 124.67-124.68.22.22-124.68 124.88Z" fill="#C59C49"/><path d="m59.15 97.35-.22-.21 124.9-124.9.2.44-124.88 124.67Z" fill="#C49A47"/><path d="m59.15 97.14-.22-.22 124.68-124.67.21.21-124.67 124.68Z" fill="#C19645"/><path d="m58.93 96.92-.2-.21 124.67-124.68.2.22-124.67 124.67Z" fill="#C09442"/><path d="m58.72 96.92-.21-.42 124.67-124.68.22.21-124.68 124.9Z" fill="#BE9240"/><path d="m58.5 96.7-.2-.2 124.88-124.9.22.43-124.9 124.68Z" fill="#BC8F3E"/><path d="m58.5 96.5-.2-.22 124.67-124.67.21.21-124.67 124.68Z" fill="#BA8C3D"/><path d="m58.3 96.28-.22-.21 124.68-124.68.2.22-124.67 124.67Z" fill="#B98A3A"/><path d="m58.08 96.28-.21-.21 124.67-124.89.43.21-124.89 124.9Z" fill="#B78738"/><path d="m58.08 96.07-.43-.21 124.9-124.68.2.21-124.67 124.68Z" fill="#B58537"/><path d="m57.87 95.86-.22-.22 124.68-124.67.21.21-124.67 124.68Z" fill="#B28235"/><path d="m57.65 95.64-.21-.21 124.68-124.68.2.22-124.67 124.67Z" fill="#B18032"/><path d="m57.44 95.64-.21-.21 124.88-124.89.22.21-124.89 124.9Z" fill="#AF7D31"/><path d="m57.44 95.43-.21-.22 124.67-124.67.21.21-124.67 124.68Z" fill="#AD7B30"/><path d="m57.23 95.21-.22-.2 124.68-124.68.21.21-124.67 124.67Z" fill="#AC792E"/><path d="m57.01 95.21-.21-.42 124.67-124.68.22.22-124.68 124.88Z" fill="#AA762C"/><path d="m56.8 95-.21-.21 124.88-124.89.22.43-124.9 124.67Z" fill="#A8742B"/><path d="m56.8 94.79-.21-.22 124.67-124.67.21.21-124.67 124.68Z" fill="#A6722A"/><path d="m56.59 94.57-.22-.21 124.68-124.67.21.2-124.67 124.68Z" fill="#A56F28"/><path d="m56.37 94.57-.21-.42 124.67-124.68.22.22-124.68 124.88Z" fill="#A36D26"/><path d="m56.16 94.36-.21-.21 124.88-124.9.22.44-124.9 124.67Z" fill="#A16B25"/><path d="m56.16 94.15-.21-.22 124.67-124.67.21.21-124.67 124.68Z" fill="#A06924"/><path d="m55.95 93.93-.22-.21 124.68-124.67.21.2-124.67 124.68Z" fill="#A16B25"/><path d="m55.73 93.93-.21-.21 124.67-124.89.43.22-124.89 124.88Z" fill="#A36D26"/><path d="m55.73 93.72-.43-.21 124.9-124.68.2.22-124.67 124.67Z" fill="#A56F28"/><path d="m55.52 93.5-.22-.2 124.68-124.68.21.21-124.67 124.68Z" fill="#A6722A"/><path d="m55.3 93.3-.2-.22 124.67-124.67.21.2-124.67 124.68Z" fill="#A8742B"/><path d="m55.1 93.3-.22-.22 124.67-124.89.43.22-124.89 124.88Z" fill="#AA762C"/><path d="m55.1 93.08-.22-.21 124.67-124.68.22.22-124.68 124.67Z" fill="#AC792E"/><path d="m54.88 92.87-.22-.22 124.68-124.67.21.21-124.67 124.68Z" fill="#AD7B30"/><path d="m54.66 92.65-.2-.21 124.66-124.68.22.22-124.68 124.67Z" fill="#AF7D31"/><path d="m54.45 92.65-.21-.21 124.88-124.89.22.43-124.89 124.67Z" fill="#B18032"/><path d="m54.45 92.44-.21-.21 124.67-124.68.22.22-124.68 124.67Z" fill="#B28235"/><path d="m54.24 92.23-.22-.22 124.68-124.67.21.21-124.67 124.68Z" fill="#B58537"/><path d="m54.02 92.23-.21-.43 124.68-124.68.2.22-124.67 124.89Z" fill="#B78738"/><path d="m53.81 92.01-.21-.21 124.89-124.89.2.43-124.88 124.67Z" fill="#B98A3A"/><path d="m53.81 91.8-.21-.21 124.67-124.68.22.21-124.68 124.68Z" fill="#BA8C3D"/><path d="m53.6 91.59-.22-.22 124.68-124.67.21.21-124.67 124.68Z" fill="#BC8F3E"/><path d="m53.38 91.59-.2-.22 124.66-124.89.43.22-124.89 124.89Z" fill="#BE9240"/><path d="m53.38 91.37-.42-.21 124.89-124.68.2.22-124.67 124.67Z" fill="#C09442"/><path d="m53.17 91.16-.21-.22 124.67-124.67.22.21-124.68 124.68Z" fill="#C19645"/><path d="m52.96 90.94-.22-.2 124.68-124.68.21.21-124.67 124.67Z" fill="#C49A47"/><path d="m52.74 90.94-.21-.2 124.68-124.9.42.22-124.89 124.88Z" fill="#C59C49"/><path d="m52.74 90.73-.21-.21 124.68-124.68.2.22-124.67 124.67Z" fill="#C79F4C"/><path d="m52.53 90.52-.21-.22 124.67-124.67.21.21-124.67 124.68Z" fill="#C9A14E"/><path d="m52.32 90.3-.22-.2 124.68-124.68.21.21-124.67 124.67Z" fill="#CBA450"/><path d="m52.1 90.3-.21-.2 124.89-124.9.21.22-124.89 124.88Z" fill="#CDA753"/><path d="m52.1 90.1-.21-.22 124.67-124.68.22.22-124.68 124.67Z" fill="#CFA955"/><path d="m51.89 89.88-.21-.22 124.67-124.67.21.21-124.67 124.68Z" fill="#D0AC58"/><path d="m51.68 89.88-.22-.43 124.68-124.67.21.2-124.67 124.9Z" fill="#D2AE5A"/><path d="m51.46 89.66-.21-.2 124.89-124.9.21.43-124.89 124.67Z" fill="#D4B15D"/><path d="m51.46 89.45-.21-.21 124.67-124.68.22.22-124.68 124.67Z" fill="#D6B45F"/><path d="m51.25 89.24-.21-.22 124.67-124.67.21.21-124.67 124.68Z" fill="#D7B662"/><path d="m51.04 89.24-.22-.22 124.68-124.88.42.2-124.88 124.9Z" fill="#D9B964"/><path d="m51.04 89.02-.43-.21 124.89-124.67.21.2-124.67 124.68Z" fill="#DBBC67"/><path d="m50.82 88.81-.21-.21 124.67-124.68.22.22-124.68 124.67Z" fill="#DDBE69"/><path d="m50.6 88.6-.2-.22 124.67-124.67.21.21-124.67 124.68Z" fill="#DFC26D"/><path d="m50.4 88.6-.22-.22 124.68-124.88.42.2-124.88 124.9Z" fill="#E1C570"/><path d="m50.4 88.38-.43-.21 124.89-124.67.2.2-124.67 124.68Z" fill="#E3C872"/><path d="m50.18 88.17-.21-.21 124.67-124.68.22.22-124.68 124.67Z" fill="#E5CA75"/><path d="m49.97 87.96-.22-.22 124.68-124.67.21.21-124.67 124.68Z" fill="#E7CD78"/><path d="m49.75 87.96-.2-.22 124.88-124.89.21.22-124.89 124.89Z" fill="#E9D07B"/><path d="m49.75 87.74-.2-.21 124.67-124.68.2.22-124.67 124.67Z" fill="#EAD37E"/><path d="m49.54 87.53-.21-.21 124.67-124.68.22.22-124.68 124.67Z" fill="#ECD681"/><path d="m49.33 87.53-.22-.43 124.68-124.67.21.21-124.67 124.89Z" fill="#EED984"/><path d="m49.11 87.32-.21-.22 124.89-124.89.21.43-124.89 124.68Z" fill="#F0DC87"/><path d="m49.11 87.1-.21-.21 124.67-124.68.22.22-124.68 124.67Z" fill="#F2DF8A"/><path d="m48.9 86.89-.21-.21 124.67-124.68.21.21-124.67 124.68Z" fill="#F3E28D"/><path d="m48.69 86.89-.22-.22 124.68-124.88.42.21-124.88 124.89Z" fill="#F5E590"/><path d="m48.69 86.67-.43-.2 124.89-124.68.21.21-124.67 124.67Z" fill="#F7E893"/><path d="m48.47 86.46-.2-.21 124.66-124.68.22.22-124.68 124.67Z" fill="#F8E994"/><path d="m48.26 86.25-.21-.22 124.67-124.67.22.21-124.68 124.68Z" fill="#F7E792"/><path d="m48.05 86.25-.22-.22 124.68-124.88.42.21-124.88 124.89Z" fill="#F6E691"/><path d="m48.05 86.03-.43-.2 124.89-124.68.21.21-124.67 124.67Z" fill="#F5E48F"/><path d="m47.83 85.82-.21-.21 124.67-124.68.22.22-124.68 124.67Z" fill="#F4E28E"/><path d="m47.62 85.6-.21-.2 124.67-124.68.21.21-124.67 124.68Z" fill="#F4E28D"/><path d="m47.4 85.6-.2-.2 124.88-124.9.21.22-124.88 124.89Z" fill="#F3E08B"/><path d="m47.4 85.4-.2-.22 124.67-124.67.21.21-124.67 124.67Z" fill="#F2DF8A"/><path d="m47.2 85.18-.22-.21 124.67-124.68.22.22-124.68 124.67Z" fill="#F1DD88"/><path d="m46.98 85.18-.21-.43 124.67-124.67.21.21-124.67 124.9Z" fill="#F1DC87"/><path d="m46.77 84.97-.22-.22 124.9-124.88.2.42-124.88 124.68Z" fill="#F0DB85"/><path d="m46.77 84.75-.22-.21 124.68-124.67.21.2-124.67 124.68Z" fill="#EFD984"/><path d="m46.55 84.54-.21-.21 124.67-124.68.22.22-124.68 124.67Z" fill="#EED782"/><path d="m46.34 84.54-.22-.43 124.68-124.67.43.21-124.9 124.89Z" fill="#EED781"/><path d="m46.34 84.33-.43-.22 124.89-124.67.21.21-124.67 124.68Z" fill="#EDD580"/><path d="m46.13 84.11-.22-.21 124.68-124.67.21.2-124.67 124.68Z" fill="#ECD47F"/><path d="m45.91 83.9-.21-.21 124.67-124.68.22.22-124.68 124.67Z" fill="#ECD37D"/><path d="m45.7 83.9-.22-.21 124.68-124.9.43.22-124.9 124.89Z" fill="#EAD17B"/><path d="m45.7 83.69-.43-.22 124.89-124.67.21.21-124.67 124.68Z" fill="#EAD07A"/><path d="m45.48 83.47-.2-.21 124.67-124.67.2.2-124.67 124.68Z" fill="#E9CF78"/><path d="m45.27 83.26-.21-.21 124.67-124.68.22.22-124.68 124.67Z" fill="#E9CD77"/><path d="m45.06 83.26-.22-.21 124.9-124.9.2.22-124.88 124.89Z" fill="#E8CB76"/><path d="m45.06 83.05-.22-.22 124.68-124.67.21.21-124.67 124.68Z" fill="#E7CB75"/><path d="m44.84 82.83-.2-.21 124.67-124.68.2.22-124.67 124.67Z" fill="#E7C973"/><path d="m44.63 82.83-.21-.42 124.67-124.68.22.21-124.68 124.9Z" fill="#E5C872"/><path d="m44.42 82.62-.22-.21 124.9-124.9.2.43-124.88 124.68Z" fill="#E4C671"/><path d="m44.42 82.4-.22-.2 124.68-124.68.21.21-124.67 124.68Z" fill="#E4C56F"/><path d="m44.2 82.2-.21-.22 124.67-124.68.22.22-124.68 124.67Z" fill="#E3C46E"/><path d="m44 82.2-.22-.43 124.67-124.68.22.21-124.68 124.9Z" fill="#E3C36C"/><path d="m43.99 81.98-.43-.21 124.9-124.68.2.21-124.67 124.68Z" fill="#E2C16B"/><path d="m43.78 81.76-.22-.2 124.68-124.68.21.21-124.67 124.67Z" fill="#E1C06A"/><path d="m43.56 81.55-.2-.21 124.67-124.68.2.22-124.67 124.67Z" fill="#E0BF69"/><path d="m43.35 81.55-.21-.21 124.67-124.89.43.21-124.89 124.9Z" fill="#DFBE67"/><path d="m43.35 81.34-.43-.22 124.9-124.67.2.21-124.67 124.68Z" fill="#DFBC66"/><path d="m43.14 81.12-.22-.2 124.68-124.68.21.21-124.67 124.67Z" fill="#DEBB64"/><path d="m42.92 80.91-.21-.21 124.67-124.68.22.22-124.68 124.67Z" fill="#DEBA63"/><path d="m42.71 80.91-.21-.21 124.88-124.89.22.21-124.89 124.9Z" fill="#DDB962"/><path d="m42.71 80.7-.21-.22 124.67-124.67.21.21-124.67 124.68Z" fill="#DBB761"/><path d="m42.5 80.48-.22-.21 124.68-124.67.21.21-124.67 124.67Z" fill="#DBB65F"/><path d="m42.28 80.48-.21-.42 124.67-124.68.22.22-124.68 124.88Z" fill="#DAB45E"/><path d="m42.07 80.27-.21-.21 124.88-124.9.22.44-124.9 124.67Z" fill="#DAB45D"/><path d="m42.07 80.06-.21-.22 124.67-124.67.21.21-124.67 124.68Z" fill="#D9B35C"/><path d="m41.86 79.84-.22-.21 124.68-124.67.21.2-124.67 124.68Z" fill="#D8B15B"/><path d="m41.64 79.84-.21-.42 124.67-124.68.22.22-124.68 124.88Z" fill="#D7AF59"/><path d="m41.43 79.63-.21-.21 124.88-124.9.22.44-124.9 124.67Z" fill="#D6AF58"/><path d="m41.43 79.42-.21-.22 124.67-124.67.21.21-124.67 124.68Z" fill="#D6AD57"/><path d="m41.22 79.2-.22-.21 124.68-124.67.21.2-124.67 124.68Z" fill="#D5AC56"/><path d="m41 79.2-.21-.21 124.67-124.89.43.22-124.89 124.88Z" fill="#D4AB55"/><path d="m41 78.99-.42-.21 124.88-124.68.22.22-124.68 124.67Z" fill="#D4AA54"/><path d="m40.79 78.78-.21-.22 124.67-124.67.21.21-124.67 124.68Z" fill="#D3A953"/><path d="m40.57 78.56-.2-.21 124.67-124.67.2.2-124.67 124.68Z" fill="#D2A751"/><path d="m40.36 78.56-.21-.21 124.88-124.89.22.21-124.89 124.9Z" fill="#D1A650"/><path d="m40.36 78.35-.21-.21 124.67-124.68.22.21-124.68 124.68Z" fill="#D0A44F"/><path d="m40.15 78.14-.22-.22 124.68-124.67.21.21-124.67 124.68Z" fill="#D0A44E"/><path d="m39.93 78.14-.2-.43 124.67-124.68.2.22-124.67 124.89Z" fill="#CFA24D"/><path d="m39.72 77.92-.21-.21 124.89-124.89.2.43-124.88 124.67Z" fill="#CEA14C"/><path d="m39.72 77.7-.21-.2 124.67-124.68.22.21-124.68 124.68Z" fill="#CDA04A"/><path d="m39.5 77.5-.2-.22 124.67-124.67.21.21-124.67 124.68Z" fill="#CD9F4A"/><path d="m39.3 77.5-.22-.43 124.67-124.68.22.22-124.68 124.89Z" fill="#CC9E49"/><path d="m39.08 77.28-.21-.21 124.88-124.89.22.43-124.89 124.67Z" fill="#CB9C47"/><path d="m39.08 77.07-.21-.21 124.67-124.68.22.21-124.68 124.68Z" fill="#CA9B46"/><path d="m38.87 76.85-.22-.2 124.68-124.68.21.21-124.67 124.67Z" fill="#C99945"/><path d="m38.65 76.86-.21-.22 124.67-124.89.43.22-124.89 124.89Z" fill="#C99944"/><path d="m38.65 76.64-.42-.21 124.88-124.68.22.22-124.68 124.67Z" fill="#C89743"/><path d="m38.44 76.43-.21-.22 124.67-124.67.21.21-124.67 124.68Z" fill="#C89642"/><path d="m38.23 76.21-.22-.2 124.68-124.68.21.21-124.67 124.67Z" fill="#C69441"/><path d="m38.01 76.21-.21-.2 124.89-124.9.21.22-124.89 124.88Z" fill="#C69440"/><path d="m38.01 76-.21-.21 124.67-124.68.22.22-124.68 124.67Z" fill="#C5923F"/><path d="m37.8 75.79-.21-.22 124.67-124.67.21.21-124.67 124.68Z" fill="#C5913E"/><path d="m37.59 75.79-.22-.43 124.68-124.67.21.21-124.67 124.89Z" fill="#C4903C"/><path d="m37.37 75.57-.21-.21 124.89-124.89.21.43-124.89 124.67Z" fill="#C48F3C"/><path d="m37.37 75.36-.21-.21 124.67-124.68.22.22-124.68 124.67Z" fill="#C28D3B"/><path d="m37.16 75.15-.21-.22 124.67-124.67.21.21-124.67 124.68Z" fill="#C18C3A"/><path d="m36.95 75.15-.22-.43 124.68-124.67.21.2-124.67 124.9Z" fill="#C18B39"/><path d="m36.73 74.93-.21-.21 124.89-124.89.21.43-124.89 124.67Z" fill="#C08A38"/><path d="m36.73 74.72-.21-.21 124.67-124.68.22.22-124.68 124.67Z" fill="#C08837"/><path d="m36.52 74.5-.21-.2 124.67-124.68.21.21-124.67 124.68Z" fill="#BF8736"/><path d="m36.3 74.5-.2-.2 124.67-124.9.42.22-124.88 124.89Z" fill="#BE8635"/><path d="m36.3 74.3-.42-.22 124.89-124.67.2.2-124.67 124.68Z" fill="#BD8534"/><path d="m36.1 74.08-.22-.21 124.67-124.68.22.22-124.68 124.67Z" fill="#BD8433"/><path d="m35.88 73.87-.22-.22 124.68-124.67.21.21-124.67 124.68Z" fill="#BC8232"/><path d="m35.66 73.87-.2-.22 124.66-124.88.43.2-124.89 124.9Z" fill="#BB8132"/><path d="m35.66 73.65-.2-.21 124.66-124.67.22.2-124.68 124.68Z" fill="#BC8232"/><path d="m35.45 73.44-.21-.21 124.67-124.68.22.21-124.68 124.68Z" fill="#BD8434"/><path d="m35.24 73.23-.22-.22 124.68-124.67.21.21-124.67 124.68Z" fill="#BE8535"/><path d="m35.02 73.23-.21-.22 124.89-124.89.21.43-124.89 124.68Z" fill="#BE8735"/><path d="m35.02 73.01-.21-.21 124.68-124.68.2.22-124.67 124.67Z" fill="#BF8837"/><path d="m34.81 72.8-.21-.21 124.67-124.68.21.21-124.67 124.68Z" fill="#C08938"/><path d="m34.6 72.8-.22-.43 124.68-124.67.21.21-124.67 124.89Z" fill="#C18B39"/><path d="m34.38 72.59-.21-.22 124.89-124.89.21.43-124.89 124.68Z" fill="#C18C3A"/><path d="m34.38 72.37-.21-.21 124.67-124.68.22.22-124.68 124.67Z" fill="#C38E3B"/><path d="m34.17 72.16-.21-.22 124.67-124.67.22.21-124.68 124.68Z" fill="#C48F3C"/><path d="m33.96 72.16-.22-.22 124.68-124.88.42.21-124.88 124.89Z" fill="#C4903D"/><path d="m33.96 71.94-.43-.2 124.89-124.68.21.21-124.67 124.67Z" fill="#C5923F"/><path d="m33.74 71.73-.21-.21 124.67-124.68.22.22-124.68 124.67Z" fill="#C59340"/><path d="m33.53 71.52-.21-.22 124.67-124.67.21.21-124.67 124.68Z" fill="#C79541"/><path d="m33.32 71.52-.22-.22 124.68-124.88.42.21-124.88 124.89Z" fill="#C89642"/><path d="m33.32 71.3-.22-.2 124.68-124.68.21.21-124.67 124.67Z" fill="#C99843"/><path d="m33.1 71.1-.21-.22 124.67-124.68.22.22-124.68 124.67Z" fill="#C99944"/><path d="m32.89 70.88-.21-.22 124.67-124.67.21.21-124.67 124.68Z" fill="#CA9A46"/><path d="m32.68 70.88-.22-.22 124.9-124.88.2.21-124.88 124.89Z" fill="#CB9C47"/><path d="m32.68 70.66-.22-.2 124.68-124.68.21.21-124.67 124.67Z" fill="#CC9D48"/><path d="m32.46 70.45-.21-.21 124.67-124.68.22.22-124.68 124.67Z" fill="#CD9E4A"/><path d="m32.25 70.45-.21-.43 124.67-124.67.21.21-124.67 124.89Z" fill="#CDA04B"/><path d="m32.04 70.24-.22-.22 124.89-124.88.21.42-124.88 124.68Z" fill="#CEA14C"/><path d="m32.04 70.02-.22-.21 124.68-124.67.21.2-124.67 124.68Z" fill="#CFA34E"/><path d="m31.82 69.81-.21-.21 124.67-124.68.22.22-124.68 124.67Z" fill="#D0A44F"/><path d="m31.6 69.81-.2-.21 124.67-124.9.43.22-124.9 124.89Z" fill="#D1A650"/><path d="m31.6 69.6-.42-.22 124.89-124.67.21.21-124.67 124.68Z" fill="#D2A751"/><path d="m31.4 69.38-.22-.21 124.68-124.67.2.2-124.66 124.68Z" fill="#D3A953"/><path d="m31.18 69.17-.21-.21 124.67-124.68.22.22-124.68 124.67Z" fill="#D4AA54"/><path d="m30.97 69.17-.22-.21 124.68-124.9.43.22-124.9 124.89Z" fill="#D4AB55"/><path d="m30.97 68.96-.43-.22 124.89-124.67.21.21-124.67 124.68Z" fill="#D5AD57"/><path d="m30.75 68.74-.2-.21 124.67-124.68.2.22-124.67 124.67Z" fill="#D6AE58"/><path d="m30.54 68.53-.21-.21 124.67-124.68.22.21-124.68 124.68Z" fill="#D7B05A"/><path d="m30.33 68.53-.22-.21 124.9-124.9.2.22-124.88 124.89Z" fill="#D8B15C"/><path d="m30.33 68.32-.22-.22 124.68-124.67.21.21-124.67 124.68Z" fill="#D9B25D"/><path d="m30.11 68.1-.21-.21 124.67-124.68.22.22-124.68 124.67Z" fill="#DAB45E"/><path d="m29.9 68.1-.21-.42 124.67-124.68.21.21-124.67 124.9Z" fill="#DBB560"/><path d="m29.69 67.89-.22-.21 124.9-124.9.2.43-124.88 124.68Z" fill="#DBB661"/><path d="m29.69 67.68-.22-.22 124.68-124.67.21.21-124.67 124.68Z" fill="#DCB862"/><path d="m29.47 67.46-.21-.21 124.67-124.68.22.22-124.68 124.67Z" fill="#DDBA64"/><path d="m29.26 67.46-.21-.21 124.67-124.89.43.21-124.89 124.9Z" fill="#DEBB66"/><path d="m29.26 67.25-.43-.22 124.9-124.67.2.21-124.67 124.68Z" fill="#DFBC67"/><path d="m29.05 67.03-.22-.2 124.68-124.68.21.21-124.67 124.67Z" fill="#E0BE69"/><path d="m28.83 66.82-.21-.21 124.67-124.68.22.22-124.68 124.67Z" fill="#E1BF6A"/><path d="m28.62 66.82-.21-.21 124.67-124.89.43.21-124.89 124.9Z" fill="#E2C16C"/><path d="m28.62 66.6-.43-.2 124.89-124.68.21.21-124.67 124.68Z" fill="#E3C26D"/><path d="m28.4 66.4-.2-.22 124.67-124.67.21.21-124.67 124.67Z" fill="#E3C36F"/><path d="m28.2 66.18-.22-.21 124.67-124.68.22.22-124.68 124.67Z" fill="#E4C570"/><path d="m27.98 66.18-.21-.21 124.88-124.89.22.21-124.9 124.9Z" fill="#E5C671"/><path d="m27.98 65.97-.21-.22 124.67-124.67.21.21-124.67 124.68Z" fill="#E6C874"/><path d="m27.77 65.75-.22-.21 124.68-124.67.21.21-124.67 124.67Z" fill="#E7CA75"/><path d="m27.55 65.75-.21-.42 124.67-124.68.22.22-124.68 124.88Z" fill="#E7CB76"/><path d="m27.34 65.54-.21-.21 124.88-124.89.22.43-124.9 124.67Z" fill="#E9CD79"/><path d="m27.34 65.33-.21-.22 124.67-124.67.21.21-124.67 124.68Z" fill="#EACE7A"/><path d="m27.13 65.11-.22-.21 124.68-124.67.21.2-124.67 124.68Z" fill="#EAD07B"/><path d="m26.91 65.11-.21-.42 124.67-124.68.22.22-124.68 124.88Z" fill="#EBD17D"/><path d="m26.91 64.9-.42-.21 124.88-124.68.22.22-124.68 124.67Z" fill="#ECD37F"/><path d="m26.7 64.69-.21-.22 124.67-124.67.21.21-124.67 124.68Z" fill="#EDD580"/><path d="m26.48 64.47-.2-.21 124.67-124.67.2.2-124.67 124.68Z" fill="#EED683"/><path d="m26.27 64.47-.21-.21 124.67-124.89.43.22-124.89 124.88Z" fill="#EFD884"/><path d="m26.27 64.26-.43-.21 124.9-124.68.2.22-124.67 124.67Z" fill="#F0D985"/><path d="m26.06 64.05-.22-.22 124.68-124.67.21.21-124.67 124.68Z" fill="#F0DB88"/><path d="m25.84 63.83-.2-.21 124.67-124.68.2.22-124.67 124.67Z" fill="#F1DD89"/><path d="m25.63 63.83-.21-.21 124.89-124.89.2.21-124.88 124.9Z" fill="#F2DE8A"/><path d="m25.63 63.62-.21-.21 124.67-124.68.22.21-124.68 124.68Z" fill="#F3DF8D"/><path d="m25.42 63.4-.22-.2 124.68-124.68.21.21-124.67 124.68Z" fill="#F4E18E"/><path d="m25.2 63.4-.21-.42 124.67-124.68.22.22-124.68 124.89Z" fill="#F5E390"/><path d="m25 63.2-.22-.22 124.88-124.89.22.43-124.89 124.67Z" fill="#F5E491"/><path d="m25 62.98-.22-.21 124.67-124.68.22.21-124.68 124.68Z" fill="#F7E693"/><path d="m24.78 62.77-.22-.22 124.68-124.67.21.21-124.67 124.68Z" fill="#F7E895"/><path d="m24.56 62.76-.21-.42 124.67-124.68.22.22-124.68 124.88Z" fill="#F8E996"/><path d="m24.56 62.55-.42-.21 124.89-124.68.2.22-124.67 124.67Z" fill="#F7E896"/><path d="m24.35 62.34-.21-.22 124.67-124.67.22.21-124.68 124.68Z" fill="#F6E795"/><path d="m24.14 62.12-.22-.2 124.68-124.68.21.21-124.67 124.67Z" fill="#F5E592"/><path d="m23.92 62.12-.21-.2 124.67-124.9.43.22-124.89 124.88Z" fill="#F5E490"/><path d="m23.92 61.91-.42-.21 124.88-124.68.22.22-124.68 124.67Z" fill="#F2E18E"/><path d="m23.71 61.7-.21-.22 124.67-124.67.21.21-124.67 124.68Z" fill="#F2E08C"/><path d="m23.5 61.48-.22-.2 124.68-124.68.21.21-124.67 124.67Z" fill="#F0DE8A"/><path d="m23.28 61.48-.21-.2 124.89-124.9.21.22-124.89 124.88Z" fill="#EFDD88"/><path d="m23.28 61.27-.21-.21 124.67-124.68.22.22-124.68 124.67Z" fill="#EDDA85"/><path d="m23.07 61.06-.21-.22 124.67-124.67.21.21-124.67 124.68Z" fill="#ECD884"/><path d="m22.86 61.06-.22-.43 124.68-124.67.21.21-124.67 124.89Z" fill="#ECD782"/><path d="m22.64 60.84-.21-.21 124.89-124.89.21.43-124.89 124.67Z" fill="#EAD580"/><path d="m22.64 60.63-.21-.21 124.67-124.68.22.22-124.68 124.67Z" fill="#E9D47E"/><path d="m22.43 60.42-.22-.22 124.68-124.67.21.21-124.67 124.68Z" fill="#E7D17B"/><path d="m22.22 60.42-.22-.43 124.68-124.67.21.2-124.67 124.9Z" fill="#E6D07A"/><path d="m22 60.2-.21-.21 124.89-124.89.2.43-124.88 124.67Z" fill="#E6CF78"/><path d="m22 59.99-.21-.21 124.67-124.68.22.22-124.68 124.67Z" fill="#E4CC77"/><path d="m21.79 59.78-.21-.22 124.67-124.67.21.21-124.67 124.68Z" fill="#E2CB74"/><path d="m21.57 59.78-.2-.22 124.67-124.89.42.22-124.89 124.89Z" fill="#E1C973"/><path d="m21.57 59.56-.42-.21 124.88-124.68.22.22-124.68 124.67Z" fill="#E0C871"/><path d="m21.36 59.35-.21-.21 124.67-124.68.22.21-124.68 124.68Z" fill="#DFC66E"/><path d="m21.15 59.14-.22-.22 124.68-124.67.21.21-124.67 124.68Z" fill="#DDC46D"/><path d="m20.93 59.14-.2-.22 124.88-124.89.21.22-124.89 124.89Z" fill="#DCC36B"/><path d="m20.93 58.92-.2-.21 124.67-124.68.2.22-124.67 124.67Z" fill="#DBC16A"/><path d="m20.72 58.7-.21-.2 124.67-124.68.22.21-124.68 124.68Z" fill="#DABF67"/><path d="m20.5 58.7-.2-.42 124.67-124.67.21.21-124.67 124.89Z" fill="#D9BE65"/><path d="m20.3 58.5-.22-.22 124.89-124.89.21.43-124.89 124.68Z" fill="#D7BC64"/><path d="m20.3 58.28-.22-.21 124.67-124.68.22.22-124.68 124.67Z" fill="#D6BB62"/><path d="m20.08 58.07-.21-.22 124.67-124.67.22.21-124.68 124.68Z" fill="#D5B961"/><path d="m19.87 58.07-.22-.43 124.68-124.67.21.21-124.67 124.89Z" fill="#D4B75F"/><path d="m19.65 57.85-.21-.2 124.89-124.9.21.43-124.89 124.67Z" fill="#D2B55D"/><path d="m19.65 57.64-.21-.21 124.68-124.68.2.22-124.67 124.67Z" fill="#D1B45B"/><path d="m19.44 57.43-.21-.22 124.67-124.67.21.21-124.67 124.68Z" fill="#D1B259"/><path d="m19.23 57.43-.22-.22 124.68-124.88.42.21-124.88 124.89Z" fill="#CFB158"/><path d="m19.23 57.21-.43-.2 124.89-124.68.21.21-124.67 124.67Z" fill="#CEAF56"/><path d="m19.01 57-.21-.21 124.67-124.68.22.22-124.68 124.67Z" fill="#CCAE55"/><path d="m18.8 56.79-.21-.22 124.67-124.67.21.21-124.67 124.68Z" fill="#CCAC53"/><path d="m18.59 56.79-.22-.22 124.89-124.88.21.21-124.88 124.89Z" fill="#CBAB51"/><path d="m18.59 56.57-.22-.21 124.68-124.67.21.21-124.67 124.67Z" fill="#C9A950"/><path d="m18.37 56.36-.21-.21 124.67-124.68.22.22-124.68 124.67Z" fill="#C8A84E"/><path d="m18.16 56.36-.21-.43 124.67-124.67.21.21-124.67 124.89Z" fill="#C6A64D"/><path d="m17.95 56.15-.22-.22 124.89-124.88.21.42-124.88 124.68Z" fill="#C6A54B"/><path d="m17.95 55.93-.22-.21 124.68-124.67.21.2-124.67 124.68Z" fill="#C5A449"/><path d="m17.73 55.72-.21-.21 124.67-124.68.22.22-124.68 124.67Z" fill="#C3A248"/><path d="m17.52 55.72-.22-.43 124.68-124.67.21.21-124.67 124.89Z" fill="#C2A046"/><path d="m17.3 55.5-.2-.2 124.88-124.9.21.43-124.88 124.68Z" fill="#C09F45"/><path d="m17.3 55.3-.2-.22 124.67-124.67.21.2-124.67 124.68Z" fill="#C09D43"/><path d="m17.1 55.08-.22-.21 124.67-124.68.22.22-124.68 124.67Z" fill="#BE9C42"/><path d="m16.88 55.08-.21-.21 124.67-124.9.43.22-124.9 124.89Z" fill="#BD9A40"/><path d="m16.88 54.87-.43-.22 124.89-124.67.21.21-124.67 124.68Z" fill="#BC993F"/><path d="m16.66 54.65-.2-.21 124.66-124.68.22.22-124.68 124.67Z" fill="#BB973E"/><path d="m16.45 54.44-.21-.21 124.67-124.68.22.22-124.68 124.67Z" fill="#B9963C"/><path d="m16.24 54.44-.22-.21 124.68-124.9.43.22-124.9 124.89Z" fill="#B8943B"/><path d="m16.24 54.23-.22-.22 124.68-124.67.21.21-124.67 124.68Z" fill="#B79339"/><path d="m16.02 54.01-.21-.21 124.68-124.68.2.22-124.67 124.67Z" fill="#B8943B"/><path d="m15.81 53.8-.21-.21 124.67-124.68.22.21-124.68 124.68Z" fill="#B9963C"/><path d="m15.6 53.8-.22-.21 124.9-124.9.2.43-124.88 124.68Z" fill="#BB973E"/><path d="m15.6 53.59-.22-.22 124.68-124.67.21.21-124.67 124.68Z" fill="#BC993F"/><path d="m15.38 53.37-.2-.21 124.66-124.68.22.22-124.68 124.67Z" fill="#BD9A40"/><path d="m15.17 53.37-.21-.43 124.67-124.67.22.21-124.68 124.9Z" fill="#BE9C42"/><path d="m14.96 53.16-.22-.22 124.9-124.88.2.42-124.88 124.68Z" fill="#C09D43"/><path d="m14.96 52.94-.22-.2 124.68-124.68.21.21-124.67 124.67Z" fill="#C09F45"/><path d="m14.74 52.73-.21-.21 124.68-124.68.2.22-124.67 124.67Z" fill="#C2A046"/><path d="m14.53 52.73-.21-.21 124.67-124.89.43.21-124.89 124.9Z" fill="#C3A248"/><path d="m14.53 52.52-.43-.22 124.89-124.67.21.21-124.67 124.68Z" fill="#C5A449"/><path d="m14.32 52.3-.22-.2 124.68-124.68.21.21-124.67 124.67Z" fill="#C6A54B"/><path d="m14.1 52.1-.21-.22 124.67-124.68.22.22-124.68 124.67Z" fill="#C6A64D"/><path d="m13.89 52.1-.21-.22 124.67-124.89.43.21-124.9 124.9Z" fill="#C8A84E"/><path d="m13.89 51.88-.43-.22 124.89-124.67.21.21-124.67 124.68Z" fill="#C9A950"/><path d="m13.68 51.66-.22-.21 124.68-124.67.21.2-124.67 124.68Z" fill="#CBAB51"/><path d="m13.46 51.45-.21-.21 124.67-124.68.22.22-124.68 124.67Z" fill="#CCAC53"/><path d="m13.25 51.45-.21-.21 124.88-124.9.22.22-124.9 124.89Z" fill="#CCAE55"/><path d="m13.25 51.24-.21-.22 124.67-124.67.21.21-124.67 124.68Z" fill="#CEAF56"/><path d="m13.04 51.02-.22-.21 124.68-124.67.21.2-124.67 124.68Z" fill="#CFB158"/><path d="m12.82 51.02-.21-.42 124.67-124.68.22.22-124.68 124.88Z" fill="#D1B259"/><path d="m12.6 50.81-.2-.21 124.88-124.9.22.44-124.9 124.67Z" fill="#D1B45B"/><path d="m12.6 50.6-.2-.22 124.67-124.67.21.21-124.67 124.68Z" fill="#D2B55D"/><path d="m12.4 50.38-.22-.21 124.68-124.67.2.2-124.66 124.68Z" fill="#D4B75F"/><path d="m12.18 50.38-.21-.21 124.67-124.89.43.22-124.89 124.88Z" fill="#D5B961"/><path d="m12.18 50.17-.43-.21 124.9-124.68.2.22-124.67 124.67Z" fill="#D6BB62"/><path d="m11.97 49.96-.22-.22 124.68-124.67.21.21-124.67 124.68Z" fill="#D7BC64"/><path d="m11.75 49.74-.2-.21 124.67-124.68.2.22-124.67 124.67Z" fill="#D9BE65"/><path d="m11.54 49.74-.21-.21 124.67-124.89.43.22-124.89 124.88Z" fill="#DABF67"/><path d="m11.54 49.53-.43-.21 124.9-124.68.2.22-124.67 124.67Z" fill="#DBC16A"/><path d="m11.33 49.32-.22-.22 124.68-124.67.21.21-124.67 124.68Z" fill="#DCC36B"/><path d="m11.11 49.1-.21-.21 124.67-124.68.22.22-124.68 124.67Z" fill="#DDC46D"/><path d="m10.9 49.1-.21-.21 124.88-124.89.22.21-124.89 124.9Z" fill="#DFC66E"/><path d="m10.9 48.89-.21-.21 124.67-124.68.21.21-124.67 124.68Z" fill="#E0C871"/><path d="m10.69 48.67-.22-.2 124.68-124.68.21.21-124.67 124.67Z" fill="#E1C973"/><path d="m10.47 48.67-.2-.42 124.67-124.68.2.22-124.67 124.88Z" fill="#E2CB74"/><path d="m10.26 48.46-.21-.21 124.89-124.89.2.43-124.88 124.67Z" fill="#E4CC77"/><path d="m10.26 48.25-.21-.22 124.67-124.67.22.21-124.68 124.68Z" fill="#E6CF78"/><path d="m10.05 48.03-.22-.2 124.68-124.68.21.21-124.67 124.67Z" fill="#E6D07A"/><path d="m9.83 48.03-.21-.2 124.67-124.9.43.22-124.89 124.88Z" fill="#E7D17B"/><path d="m9.83 47.82-.42-.21 124.88-124.68.22.22-124.68 124.67Z" fill="#E9D47E"/><path d="m9.62 47.6-.21-.2 124.67-124.68.21.21-124.67 124.68Z" fill="#EAD580"/><path d="m9.4 47.4-.2-.22 124.67-124.67.21.21-124.67 124.67Z" fill="#ECD782"/><path d="m9.2 47.4-.22-.22 124.67-124.89.43.22-124.89 124.88Z" fill="#ECD884"/><path d="m9.2 47.18-.43-.21 124.88-124.68.22.22-124.68 124.67Z" fill="#EDDA85"/><path d="m8.98 46.97-.21-.22 124.67-124.67.21.21-124.67 124.68Z" fill="#EFDD88"/><path d="m8.77 46.75-.22-.21 124.68-124.67.21.2-124.67 124.68Z" fill="#F0DE8A"/><path d="m8.55 46.75-.21-.2 124.89-124.9.21.22-124.89 124.88Z" fill="#F2E08C"/><path d="m8.55 46.54-.21-.21 124.67-124.68.22.22-124.68 124.67Z" fill="#F2E18E"/><path d="m8.34 46.33-.21-.22 124.67-124.67.21.21-124.67 124.68Z" fill="#F5E490"/><path d="m8.13 46.33-.22-.43 124.68-124.67.21.2-124.67 124.9Z" fill="#F5E592"/><path d="m7.91 46.11-.21-.21 124.89-124.89.21.43-124.89 124.67Z" fill="#F6E795"/><path d="m7.91 45.9-.21-.21 124.67-124.68.22.22-124.68 124.67Z" fill="#F7E896"/><path d="m7.7 45.69-.22-.22 124.68-124.67.21.21-124.67 124.68Z" fill="#F8E996"/><path d="m7.48 45.69-.2-.43 124.67-124.68.2.22-124.67 124.89Z" fill="#F7E895"/><path d="m7.48 45.47-.42-.21 124.88-124.68.22.22-124.68 124.67Z" fill="#F7E693"/><path d="m7.27 45.26-.21-.21 124.67-124.68.22.22-124.68 124.67Z" fill="#F5E491"/><path d="m7.06 45.05-.22-.22 124.68-124.67.21.21-124.67 124.68Z" fill="#F5E390"/><path d="m6.84 45.05-.2-.22 124.67-124.89.42.22-124.89 124.89Z" fill="#F4E18E"/><path d="m6.84 44.83-.42-.21 124.89-124.68.2.22-124.67 124.67Z" fill="#F3DF8D"/><path d="m6.63 44.62-.21-.21 124.67-124.68.22.21-124.68 124.68Z" fill="#F2DE8A"/><path d="m6.42 44.4-.22-.2 124.68-124.68.21.21-124.67 124.68Z" fill="#F1DD89"/><path d="m6.2 44.4-.21-.2 124.89-124.9.21.22-124.89 124.89Z" fill="#F0DB88"/><path d="m6.2 44.2-.21-.22 124.67-124.68.22.22-124.68 124.67Z" fill="#F0D985"/><path d="m6 43.98-.22-.21 124.67-124.68.22.21-124.68 124.68Z" fill="#EFD884"/><path d="m5.78 43.98-.22-.43 124.68-124.67.21.21-124.67 124.89Z" fill="#EED683"/><path d="m5.56 43.77-.2-.22 124.88-124.89.21.43-124.89 124.68Z" fill="#EDD580"/><path d="m5.56 43.55-.2-.21 124.67-124.68.2.22-124.67 124.67Z" fill="#ECD37F"/><path d="m5.35 43.34-.21-.22 124.67-124.67.22.21-124.68 124.68Z" fill="#EBD17D"/><path d="m5.14 43.34-.22-.43 124.68-124.67.21.21-124.67 124.89Z" fill="#EAD07B"/><path d="m5.14 43.12-.43-.2 124.89-124.9.21.43-124.67 124.67Z" fill="#EACE7A"/><path d="m4.92 42.91-.21-.21 124.67-124.68.22.22-124.68 124.67Z" fill="#E9CD79"/><path d="m4.71 42.7-.21-.22 124.67-124.67.21.21-124.67 124.68Z" fill="#E7CB76"/><path d="m4.5 42.7-.22-.22 124.68-124.88.42.21-124.88 124.89Z" fill="#E7CA75"/><path d="m4.5 42.48-.43-.2 124.89-124.68.21.21-124.67 124.67Z" fill="#E6C874"/><path d="m4.28 42.27-.21-.21 124.67-124.68.22.22-124.68 124.67Z" fill="#E5C671"/><path d="m4.07 42.06-.21-.22 124.67-124.67.21.21-124.67 124.68Z" fill="#E4C570"/><path d="m3.86 42.06-.22-.22 124.89-124.88.21.2-124.88 124.9Z" fill="#E3C36F"/><path d="m3.86 41.84-.22-.21 124.68-124.67.21.2-124.67 124.68Z" fill="#E3C26D"/><path d="m3.64 41.63-.21-.21 124.67-124.68.22.22-124.68 124.67Z" fill="#E2C16C"/><path d="m3.43 41.63-.22-.43 124.68-124.67.21.21-124.67 124.89Z" fill="#E1BF6A"/><path d="m3.22 41.42-.22-.22 124.89-124.88.21.42-124.88 124.68Z" fill="#E0BE69"/><path d="m3.22 41.2-.22-.21 124.68-124.67.21.2-124.67 124.68Z" fill="#DFBC67"/><path d="m3 40.99-.21-.21 124.67-124.68.22.22-124.68 124.67Z" fill="#DEBB66"/><path d="m2.79 40.99-.22-.43 124.68-124.67.21.21-124.67 124.89Z" fill="#DDBA64"/><path d="m2.57 40.78-.2-.22 124.88-124.88.21.42-124.89 124.68Z" fill="#DCB862"/><path d="m2.57 40.56-.2-.21 124.67-124.67.2.2-124.67 124.68Z" fill="#DBB661"/><path d="m2.36 40.35-.21-.21 124.67-124.68.22.21-124.68 124.68Z" fill="#DBB560"/><path d="m2.15 40.35-.22-.21 124.68-124.9.43.22-124.9 124.89Z" fill="#DAB45E"/><path d="m2.15 40.14-.43-.22 124.89-124.67.21.21-124.67 124.68Z" fill="#D9B25D"/><path d="m1.93 39.92-.2-.21 124.67-124.68.2.22-124.67 124.67Z" fill="#D8B15C"/><path d="m1.72 39.7-.21-.2 124.67-124.68.21.21-124.67 124.68Z" fill="#D7B05A"/><path d="m1.5 39.7-.2-.2 124.88-124.9.21.22-124.88 124.89Z" fill="#D6AE58"/><path d="m1.5 39.5-.2-.22 124.67-124.67.21.21-124.67 124.68Z" fill="#D5AD57"/><path d="m1.3 39.28-.22-.21 124.67-124.68.22.22-124.68 124.67Z" fill="#D4AB55"/><path d="m1.08 39.28-.21-.43 124.67-124.67.21.21-124.67 124.9Z" fill="#D4AA54"/><path d="m.87 39.07-.22-.22 124.9-124.88.2.42-124.88 124.68Z" fill="#D3A953"/><path d="m.87 38.85-.22-.2 124.68-124.68.21.21-124.67 124.67Z" fill="#D2A751"/><path d="m.65 38.64-.21-.21 124.67-124.68.22.22-124.68 124.67Z" fill="#D1A650"/><path d="m.44 38.64-.21-.43 124.67-124.67.21.21-124.67 124.9Z" fill="#D0A44F"/><path d="m.23 38.43-.22-.22 124.89-124.88.21.42-124.88 124.68Z" fill="#CFA34E"/><path d="m.23 38.21-.22-.2 124.68-124.68.21.21-124.67 124.67Z" fill="#CEA14C"/><path d="m.01 38-.21-.21 124.67-124.68.22.22-124.68 124.67Z" fill="#CDA04B"/><path d="m-.2 38-.21-.21 124.67-124.89.43.21-124.9 124.9Z" fill="#CD9E4A"/><path d="m-.2 37.79-.43-.22 124.9-124.67.2.21-124.67 124.68Z" fill="#CC9D48"/><path d="m-.41 37.57-.22-.21 124.68-124.67.21.21-124.67 124.67Z" fill="#CB9C47"/><path d="m-.63 37.36-.21-.21 124.67-124.68.22.22-124.68 124.67Z" fill="#CA9A46"/><path d="m-.84 37.36-.21-.21 124.88-124.9.22.22-124.9 124.89Z" fill="#C99944"/><path d="m-.84 37.15-.21-.22 124.67-124.67.21.21-124.67 124.68Z" fill="#C99843"/><path d="m-1.05 36.93-.22-.21 124.68-124.67.21.2-124.67 124.68Z" fill="#C89642"/><path d="m-1.27 36.72-.21-.21 124.67-124.68.22.22-124.68 124.67Z" fill="#C79541"/><path d="m-1.48 36.72-.21-.21 124.88-124.9.22.44-124.9 124.67Z" fill="#C59340"/><path d="m-1.48 36.5-.21-.2 124.67-124.68.21.21-124.67 124.68Z" fill="#C5923F"/><path d="m-1.7 36.3-.2-.22 124.67-124.67.21.2-124.67 124.68Z" fill="#C4903D"/><path d="m-1.9 36.3-.22-.43 124.67-124.68.22.22-124.68 124.88Z" fill="#C48F3C"/><path d="m-2.12 36.08-.21-.21 124.88-124.9.22.44-124.9 124.67Z" fill="#C38E3B"/><path d="m-2.12 35.87-.21-.22 124.67-124.67.21.21-124.67 124.68Z" fill="#C18C3A"/><path d="m-2.34 35.65-.2-.21 124.66-124.67.22.2-124.68 124.68Z" fill="#C18B39"/><path d="m-2.55 35.65-.21-.21 124.67-124.89.43.21-124.89 124.9Z" fill="#C08938"/><path d="m-2.55 35.44-.43-.21 124.9-124.68.2.21-124.67 124.68Z" fill="#BF8837"/><path d="m-2.76 35.23-.22-.22 124.68-124.67.21.21-124.67 124.68Z" fill="#BE8735"/><path d="m-2.98 35.01-.2-.21 124.66-124.68.22.22-124.68 124.67Z" fill="#BE8535"/><path d="m-3.19 35.01-.21-.21 124.67-124.89.43.21-124.89 124.9Z" fill="#BD8434"/><path d="m-3.19 34.8-.21-.21 124.67-124.68.21.21-124.67 124.68Z" fill="#BC8232"/><path d="m-3.4 34.59-.22-.22 124.68-124.67.21.21-124.67 124.68Z" fill="#BB8132"/><path d="m-3.62 34.37-.21-.21 124.67-124.68.22.22-124.68 124.67Z" fill="#BC8232"/><path d="m-3.83 34.37-.21-.21 124.88-124.89.22.43-124.89 124.67Z" fill="#BD8433"/><path d="m-3.83 34.16-.21-.22 124.67-124.67.22.21-124.68 124.68Z" fill="#BD8534"/><path d="m-4.04 33.94-.22-.2 124.68-124.68.21.21-124.67 124.67Z" fill="#BE8635"/><path d="m-4.26 33.95-.21-.43 124.67-124.68.22.22-124.68 124.88Z" fill="#BF8736"/><path d="m-4.47 33.73-.21-.21 124.88-124.89.22.43-124.89 124.67Z" fill="#C08837"/><path d="m-4.47 33.52-.21-.22 124.67-124.67.21.21-124.67 124.68Z" fill="#C08A38"/><path d="m-4.68 33.3-.22-.2 124.68-124.68.21.21-124.67 124.67Z" fill="#C18B39"/><path d="m-4.9 33.3-.21-.2 124.67-124.9.43.22-124.89 124.88Z" fill="#C18C3A"/><path d="m-4.9 33.1-.42-.22 124.88-124.68.22.22-124.68 124.67Z" fill="#C28D3B"/><path d="m-5.11 32.88-.21-.22 124.67-124.67.21.21-124.67 124.68Z" fill="#C48F3C"/><path d="m-5.32 32.66-.22-.2 124.68-124.68.21.21-124.67 124.67Z" fill="#C4903C"/><path d="m-5.54 32.66-.21-.21 124.67-124.89.43.22-124.89 124.88Z" fill="#C5913E"/><path d="m-5.54 32.45-.42-.21 124.88-124.68.22.22-124.68 124.67Z" fill="#C5923F"/><path d="m-5.75 32.24-.21-.22 124.67-124.67.21.21-124.67 124.68Z" fill="#C69440"/><path d="m-5.96 32.02-.22-.21 124.68-124.67.21.2-124.67 124.68Z" fill="#C69441"/><path d="m-6.18 32.02-.21-.21 124.89-124.89.21.22-124.89 124.88Z" fill="#C89642"/><path d="m-6.18 31.81-.21-.21 124.67-124.68.22.22-124.68 124.67Z" fill="#C89743"/><path d="m-6.4 31.6-.2-.22 124.67-124.67.21.21-124.67 124.68Z" fill="#C99944"/><path d="m-6.6 31.6-.22-.43 124.68-124.67.2.2-124.66 124.9Z" fill="#C99945"/><path d="m-6.82 31.38-.21-.21 124.89-124.89.2.43-124.88 124.67Z" fill="#CA9B46"/><path d="m-6.82 31.17-.21-.21 124.67-124.68.22.22-124.68 124.67Z" fill="#CB9C47"/><path d="m-7.03 30.96-.22-.22 124.68-124.67.21.21-124.67 124.68Z" fill="#CC9E49"/><path d="m-7.25 30.96-.2-.22 124.67-124.88.42.2-124.89 124.9Z" fill="#CD9F4A"/><path d="m-7.25 30.74-.42-.21 124.89-124.67.2.2-124.67 124.68Z" fill="#CDA04A"/><path d="m-7.46 30.53-.21-.21 124.67-124.68.22.21-124.68 124.68Z" fill="#CEA14C"/><path d="m-7.67 30.32-.22-.22 124.68-124.67.21.21-124.67 124.68Z" fill="#CFA24D"/><path d="m-7.89 30.32-.21-.22 124.67-124.89.43.22-124.89 124.89Z" fill="#D0A44E"/><path d="m-7.89 30.1-.42-.21 124.88-124.68.22.22-124.68 124.67Z" fill="#D0A44F"/><path d="m-8.1 29.89-.21-.21 124.67-124.68.21.21-124.67 124.68Z" fill="#D1A650"/><path d="m-8.31 29.68-.22-.22 124.68-124.67.21.21-124.67 124.68Z" fill="#D2A751"/><path d="m-8.53 29.68-.21-.22 124.89-124.89.21.22-124.89 124.88Z" fill="#D3A953"/><path d="m-8.53 29.46-.21-.21 124.67-124.68.22.22-124.68 124.67Z" fill="#D4AA54"/><path d="m-8.74 29.25-.21-.22 124.67-124.67.22.21-124.68 124.68Z" fill="#D4AB55"/><path d="m-8.95 29.25-.22-.43 124.68-124.67.21.21-124.67 124.89Z" fill="#D5AC56"/><path d="m-9.17 29.03-.21-.2 124.89-124.9.21.43-124.89 124.67Z" fill="#D6AD57"/><path d="m-9.17 28.82-.21-.21 124.67-124.68.22.22-124.68 124.67Z" fill="#D6AF58"/><path d="m-9.38 28.6-.21-.2 124.67-124.68.21.21-124.67 124.68Z" fill="#D7AF59"/><path d="m-9.6 28.6-.2-.2 124.67-124.9.42.22-124.88 124.89Z" fill="#D8B15B"/><path d="m-9.6 28.4-.42-.22 124.89-124.67.21.21-124.67 124.67Z" fill="#D9B35C"/><path d="m-9.8 28.18-.22-.21 124.67-124.68.22.22-124.68 124.67Z" fill="#DAB45D"/><path d="m-10.02 27.97-.21-.22 124.67-124.67.21.21-124.67 124.68Z" fill="#DAB45E"/><path d="m-10.23 27.97-.22-.22 124.68-124.88.42.21-124.88 124.89Z" fill="#DBB65F"/><path d="m-10.23 27.75-.43-.2 124.89-124.68.21.21-124.67 124.67Z" fill="#DBB761"/><path d="m-10.45 27.54-.21-.21 124.67-124.68.22.22-124.68 124.67Z" fill="#DDB962"/><path d="m-10.66 27.33-.21-.22 124.67-124.67.21.21-124.67 124.68Z" fill="#DEBA63"/><path d="m-10.87 27.33-.22-.22 124.89-124.88.21.2-124.88 124.9Z" fill="#DEBB64"/><path d="m-10.87 27.11-.22-.21 124.68-124.67.21.2-124.67 124.68Z" fill="#DFBC66"/><path d="m-11.09 26.9-.21-.21 124.67-124.68.22.22-124.68 124.67Z" fill="#DFBE67"/><path d="m-11.3 26.9-.21-.43 124.67-124.67.21.21-124.67 124.89Z" fill="#E0BF69"/><path d="m-11.52 26.69-.2-.22 124.88-124.89.21.43-124.89 124.68Z" fill="#E1C06A"/><path d="m-11.52 26.47-.2-.21 124.67-124.68.2.22-124.67 124.67Z" fill="#E2C16B"/><path d="m-11.73 26.26-.21-.21 124.67-124.68.21.22-124.67 124.67Z" fill="#E3C36C"/><path d="m-11.94 26.26-.22-.43 124.68-124.67.21.21-124.67 124.89Z" fill="#E3C46E"/><path d="m-11.94 26.05-.43-.22 124.89-124.67.21.21-124.67 124.68Z" fill="#E4C56F"/><path d="m-12.16 25.83-.2-.21 124.67-124.68.2.22-124.67 124.67Z" fill="#E4C671"/><path d="m-12.37 25.62-.21-.21 124.67-124.68.22.21-124.68 124.68Z" fill="#E5C872"/><path d="m-12.58 25.62-.22-.21 124.68-124.9.43.22-124.9 124.89Z" fill="#E7C973"/><path d="m-12.58 25.4-.43-.2 124.89-124.68.21.21-124.67 124.68Z" fill="#E7CB75"/><path d="m-12.8 25.2-.21-.22 124.68-124.68.2.22-124.67 124.67Z" fill="#E8CB76"/><path d="m-13 24.98-.22-.21 124.67-124.68.22.21-124.68 124.68Z" fill="#E9CD77"/><path d="m-13.22 24.98-.22-.21 124.9-124.9.2.22-124.88 124.89Z" fill="#E9CF78"/><path d="m-13.22 24.77-.22-.22 124.68-124.67.21.21-124.67 124.68Z" fill="#EAD07A"/><path d="m-13.44 24.55-.21-.21 124.67-124.68.22.22-124.68 124.67Z" fill="#EAD17B"/><path d="m-13.65 24.55-.21-.43 124.67-124.67.22.21-124.68 124.9Z" fill="#ECD37D"/><path d="m-13.86 24.34-.22-.22 124.9-124.88.2.42-124.88 124.68Z" fill="#ECD47F"/><path d="m-13.86 24.12-.22-.2 124.68-124.68.21.21-124.67 124.67Z" fill="#EDD580"/><path d="m-14.08 23.91-.21-.21 124.67-124.68.22.22-124.68 124.67Z" fill="#EED781"/><path d="m-14.29 23.91-.21-.43 124.67-124.67.21.21-124.67 124.9Z" fill="#EED782"/><path d="m-14.5 23.7-.22-.22 124.89-124.88.21.42-124.88 124.68Z" fill="#EFD984"/><path d="m-14.5 23.48-.22-.2 124.68-124.68.21.21-124.67 124.67Z" fill="#F0DB85"/><path d="m-14.72 23.27-.21-.21 124.67-124.68.22.22-124.68 124.67Z" fill="#F1DC87"/><path d="m-14.93 23.27-.21-.21 124.67-124.9.43.22-124.9 124.9Z" fill="#F1DD88"/><path d="m-14.93 23.06-.43-.22 124.89-124.67.21.21-124.67 124.68Z" fill="#F2DF8A"/><path d="m-15.14 22.84-.22-.21 124.68-124.67.21.21-124.67 124.67Z" fill="#F3E08B"/><path d="m-15.36 22.63-.21-.21 124.67-124.68.22.22-124.68 124.67Z" fill="#F4E28D"/><path d="m-15.57 22.63-.22-.21 124.9-124.9.2.22-124.88 124.9Z" fill="#F4E28E"/><path d="m-15.57 22.42-.22-.22 124.68-124.67.21.21-124.67 124.68Z" fill="#F5E48F"/><path d="m-15.78 22.2-.22-.21 124.68-124.67.21.2-124.67 124.68Z" fill="#F6E691"/><path d="m-16 22.2-.21-.42 124.67-124.68.22.22-124.68 124.88Z" fill="#F7E792"/><path d="m-16.21 21.99-.21-.21 124.88-124.9.22.44-124.9 124.67Z" fill="#F8E994"/><path d="m-16.21 21.78-.21-.22 124.67-124.67.21.21-124.67 124.68Z" fill="#F7E893"/><path d="m-16.43 21.56-.2-.21 124.67-124.68.2.22-124.67 124.67Z" fill="#F5E590"/><path d="m-16.64 21.56-.21-.42 124.67-124.68.22.22-124.68 124.88Z" fill="#F3E28D"/><path d="m-16.85 21.35-.22-.21 124.9-124.9.2.44-124.88 124.67Z" fill="#F2DF8A"/><path d="m-16.85 21.14-.22-.22 124.68-124.67.21.21-124.67 124.68Z" fill="#F0DC87"/><path d="m-17.07 20.92-.2-.21 124.66-124.68.22.22-124.68 124.67Z" fill="#EED984"/><path d="m-17.28 20.92-.21-.21 124.67-124.89.43.21-124.89 124.9Z" fill="#ECD681"/><path d="m-17.28 20.7-.43-.2 124.9-124.68.2.21-124.67 124.68Z" fill="#EAD37E"/><path d="M-17.5 20.5h-.2l124.88-124.68-124.67 124.68Z" fill="#E9D07B"/></g></svg>