<svg width="78.203125" height="17.012451" viewBox="0 0 78.2031 17.0125" fill="none" xmlns="http://www.w3.org/2000/svg" xmlns:xlink="http://www.w3.org/1999/xlink">
	<desc>
			Created with Pixso.
	</desc>
	<defs/>
	<path id="Vector" d="M9.44727 0.046875C7.69043 -0.137207 5.91895 0.224365 4.37695 1.08228C2.83496 1.94019 1.59863 3.25195 0.835938 4.8374C0.0742188 6.42285 -0.175781 8.20435 0.12207 9.93652C0.418945 11.6689 1.24805 13.2673 2.49512 14.5117C3.74219 15.7563 5.34668 16.5862 7.08691 16.887C8.82812 17.1877 10.6191 16.9451 12.2158 16.1919C13.8115 15.439 15.1348 14.2126 16.002 12.6814C16.8691 11.1504 17.2383 9.38965 17.0586 7.64136C16.8604 5.698 15.9961 3.88184 14.6094 2.49854C13.2236 1.11523 11.4004 0.249512 9.44727 0.046875ZM9.16992 13.0078C8.22461 13.134 7.26465 12.9624 6.42188 12.5171C5.58008 12.072 4.90039 11.3755 4.47656 10.5259C4.05371 9.67603 3.9082 8.71582 4.06152 7.77979C4.21582 6.84375 4.66016 5.97925 5.33301 5.30737C6.00586 4.63574 6.87402 4.19092 7.81445 4.03516C8.75488 3.87939 9.7207 4.02075 10.5762 4.43921C11.4316 4.85767 12.1338 5.53247 12.584 6.36841C13.0342 7.20435 13.21 8.15967 13.0859 9.1001C12.9561 10.0891 12.502 11.0081 11.7939 11.7144C11.0859 12.4209 10.1641 12.8755 9.16992 13.0078ZM21.6318 0.383301C21.335 0.384033 21.043 0.450439 20.7754 0.577881C20.5078 0.705322 20.2725 0.890381 20.0859 1.11987C19.8994 1.34912 19.7666 1.61694 19.6973 1.90381C19.6279 2.19067 19.623 2.48926 19.6846 2.77808C19.8721 3.71313 20.75 4.35205 21.707 4.35205L27.2578 4.35205L18.6191 15.7246C18.5557 15.8086 18.5156 15.9087 18.5059 16.0134C18.4961 16.1184 18.5156 16.2239 18.5625 16.3181C18.6094 16.4126 18.6816 16.4922 18.7715 16.5479C18.8613 16.6035 18.9658 16.6333 19.0713 16.6338L32.6226 16.6338C33.5786 16.6338 34.4575 15.9949 34.645 15.0596C34.7061 14.771 34.7021 14.4724 34.6328 14.1855C34.5635 13.8987 34.4307 13.6309 34.2441 13.4014C34.0576 13.1721 33.8223 12.9868 33.5547 12.8594C33.2876 12.7319 32.9946 12.6653 32.6982 12.6646L25.9346 12.6646L34.5669 1.30078C34.6313 1.21606 34.6709 1.11499 34.6812 1.00928C34.6909 0.90332 34.6714 0.796875 34.624 0.70166C34.5762 0.606201 34.5029 0.526123 34.4126 0.469727C34.3218 0.413574 34.2168 0.383545 34.1104 0.383301L21.6318 0.383301ZM75.7822 0.429199C75.3335 0.535156 74.9346 0.790527 74.6519 1.15259C74.3687 1.51489 74.2183 1.96216 74.2256 2.4209L74.2256 9.02881L63.4619 0.508057C63.3774 0.441406 63.2759 0.399902 63.1685 0.388184C63.0615 0.376465 62.9531 0.39502 62.856 0.44165C62.7593 0.488525 62.6772 0.561523 62.6201 0.652344C62.563 0.743408 62.5332 0.848389 62.5332 0.955566L62.5332 14.5996C62.5259 15.0583 62.6763 15.5059 62.9595 15.8679C63.2422 16.2302 63.6411 16.4854 64.0898 16.5916C64.3813 16.6553 64.6831 16.6531 64.9736 16.5852C65.2642 16.5173 65.5352 16.3857 65.7676 16.1995C66 16.0134 66.1875 15.7778 66.3159 15.5103C66.4448 15.2424 66.5112 14.9495 66.5107 14.6526L66.5107 7.98755L77.2749 16.5083C77.3594 16.575 77.4609 16.6167 77.5684 16.6284C77.6753 16.6401 77.7837 16.6216 77.8804 16.5747C77.9775 16.5281 78.0591 16.4551 78.1162 16.3643C78.1733 16.2732 78.2036 16.1682 78.2031 16.061L78.2031 2.36719C78.2036 2.07056 78.1367 1.77759 78.0083 1.51001C77.8794 1.24243 77.6919 1.00684 77.46 0.820801C77.2275 0.634766 76.9561 0.503174 76.666 0.435303C76.3755 0.367432 76.0737 0.365479 75.7822 0.429199ZM47.7554 3.97217C52.3086 3.97217 55.7104 6.36572 55.7104 8.50659C55.7104 10.6475 52.3086 13.0408 47.7554 13.0408C43.2026 13.0408 39.8008 10.6475 39.8008 8.50659C39.8008 6.36572 43.2026 3.97217 47.7554 3.97217ZM47.7554 0.00366211C41.1655 0.00366211 35.8232 3.81055 35.8232 8.50659C35.8232 13.2024 41.1655 17.0095 47.7554 17.0095C54.3457 17.0095 59.688 13.2024 59.688 8.50659C59.688 3.81055 54.3457 0.00366211 47.7554 0.00366211Z" fill="#0069FF" fill-opacity="1.000000" fill-rule="evenodd"/>
</svg>
