<svg width="30.468262" height="30.468506" viewBox="0 0 30.4683 30.4685" fill="none" xmlns="http://www.w3.org/2000/svg" xmlns:xlink="http://www.w3.org/1999/xlink">
	<desc>
			Created with Pixso.
	</desc>
	<defs>
		<linearGradient id="paint_linear_391_914_0" x1="-0.000004" y1="30.468500" x2="30.468756" y2="0.000013" gradientUnits="userSpaceOnUse">
			<stop stop-color="#B52181"/>
			<stop offset="1.000000" stop-color="#50327C"/>
		</linearGradient>
	</defs>
	<rect id="Rectangle 59" rx="5.000000" width="30.468506" height="30.468506" fill="url(#paint_linear_391_914_0)" fill-opacity="1.000000"/>
	<path id="Vector" d="M28.2178 17.7493C28.2178 18.6965 27.8799 19.4836 27.1904 20.1106C26.501 20.7375 25.6895 21.0576 24.6895 21.0576L19.6733 21.0576L19.6733 9.4917L24.3242 9.4917C25.2842 9.4917 26.0947 9.81177 26.7573 10.4121C27.4336 11.0259 27.7583 11.7861 27.7583 12.6934C27.7583 13.7073 27.3525 14.481 26.5684 15.0547C27.5957 15.5881 28.2178 16.5486 28.2178 17.7493ZM21.6064 11.2793L21.6064 14.3208L24.3374 14.3208C25.1895 14.3208 25.8384 13.6538 25.8384 12.8C25.8384 11.9463 25.1895 11.2793 24.3374 11.2793L21.6064 11.2793ZM24.7026 19.27C25.5947 19.27 26.2983 18.563 26.2983 17.656C26.2983 16.7488 25.5947 16.0417 24.7026 16.0417L21.6064 16.0417L21.6064 19.2834L24.7026 19.2834L24.7026 19.27Z" fill="#FFFFFF" fill-opacity="1.000000" fill-rule="nonzero"/>
	<path id="Vector" d="M5.39014 20.9854L2.25049 9.41187L4.31006 9.41187L6.72217 18.301L9.30713 9.41113L11.2271 9.41187L13.8213 18.3481L16.2441 9.41406L18.3037 9.41113L15.1626 20.9834L12.7759 20.981L10.2681 12.3379L7.75781 20.9832L5.39014 20.9854Z" fill="#FFFFFF" fill-opacity="1.000000" fill-rule="nonzero"/>
</svg>
