<svg width="67.716553" height="27.284912" viewBox="0 0 67.7166 27.2849" fill="none" xmlns="http://www.w3.org/2000/svg" xmlns:xlink="http://www.w3.org/1999/xlink">
	<desc>
			Created with Pixso.
	</desc>
	<defs/>
	<path id="&lt;Составной контур&gt;" d="M6.99023 15.353L3.34424 24.0933L0.534912 24.1597L4.54541 14.8108C2.53296 13.8479 1.16382 12.0486 1.08374 8.67114C0.971436 3.93628 3.91406 1.4978 7.48096 1.41333L11.1108 1.32715L11.646 23.8965L9.21533 23.9539L9.0105 15.3052L6.99023 15.353ZM8.729 3.43652L7.43481 3.46729C5.47778 3.51367 3.6145 4.85278 3.70361 8.60889C3.78979 12.2388 5.55347 13.3657 7.66821 13.3154L8.9624 13.2849L8.729 3.43652Z" fill="#FF0000" fill-opacity="1.000000" fill-rule="nonzero"/>
	<path id="&lt;Составной контур&gt;" d="M22.9795 7.70996L23.3567 23.6189L20.926 23.6765L20.7571 16.543L17.0955 16.6296L17.2646 23.7634L14.8025 23.8218L14.4253 7.91284L16.8875 7.85449L17.0476 14.6094L20.709 14.5225L20.5491 7.76758L22.9795 7.70996ZM36.0884 26.4438L33.8788 26.4963L33.8047 23.3713L26.9866 23.533L27.0605 26.658L24.8511 26.7102L24.729 21.5652L25.7078 21.542C27.0796 18.1301 27.1206 13.2021 27.0205 8.97241L26.9883 7.61499L34.3746 7.43994L34.7039 21.3286L35.9663 21.2988L36.0884 26.4438ZM31.9912 9.48633L29.2449 9.55127L29.2517 9.83545C29.3311 13.1812 29.2891 18.0776 28.0435 21.4866L32.2732 21.3862L31.9912 9.48633ZM42.806 23.3789C39.5233 23.4568 37.441 20.8848 37.3251 15.9922C37.2039 10.8787 38.536 7.12036 41.9135 7.04028C44.5649 6.97729 46.3481 8.9248 46.4761 14.3225L46.5083 15.6799L39.8795 15.8369C39.9648 19.4353 41.0198 21.3054 42.9768 21.259C44.3657 21.2261 45.4556 20.5686 46.0763 20.1116L46.6896 21.9919C45.5886 22.8792 44.22 23.3679 42.806 23.3789ZM39.8632 13.8159L43.9352 13.7195C43.8707 11.0049 43.3817 9.02661 41.9614 9.0603C40.4462 9.09619 39.9537 10.9714 39.8632 13.8159ZM51.4828 15.0251L51.6707 22.9478L49.2085 23.0061L48.8314 7.09717L51.2936 7.03882L51.4679 14.3936L55.1128 6.94824L57.6066 6.88916L53.8383 14.4639L58.5518 22.7847L55.8687 22.8484L51.4828 15.0251ZM58.6788 14.823C58.5605 9.83545 60.4106 6.60181 64.1354 6.51343C65.5557 6.47974 66.3854 6.83911 67.0903 7.26465L66.7985 9.60864C66.1221 9.05615 65.1625 8.54199 64.1523 8.56592C62.3846 8.60791 61.1693 10.6265 61.2643 14.6353C61.3585 18.6123 62.3594 20.8625 64.3479 20.8154C65.3323 20.8054 66.2786 20.4346 67.0078 19.7734L67.6193 21.5908C66.7249 22.4167 65.5508 22.8733 64.3334 22.8687C60.9243 22.9495 58.8075 20.2522 58.6788 14.823Z" fill="#FFFFFF" fill-opacity="1.000000" fill-rule="nonzero"/>
</svg>
